<?xml version="1.0" encoding="UTF-8"?>
<svg version="1.1" xmlns="http://www.w3.org/2000/svg" width="500" height="500">
<path d="M0 0 C0 4.29 0 8.58 0 13 C-0.66 13 -1.32 13 -2 13 C-1.95488281 13.721875 -1.90976562 14.44375 -1.86328125 15.1875 C-2.22094854 22.54522703 -7.03044117 28.03044117 -12 33 C-12.72045367 36.15118325 -12.72045367 36.15118325 -13 39 C-13.99 39.495 -13.99 39.495 -15 40 C-16.09166275 41.93330603 -16.09166275 41.93330603 -17 44 C-17.495 44.99 -17.495 44.99 -18 46 C-18.66 46 -19.32 46 -20 46 C-21.49821059 49.37097383 -22 51.20442119 -22 55 C-22.66 55 -23.32 55 -24 55 C-23.7525 55.556875 -23.505 56.11375 -23.25 56.6875 C-23 59 -23 59 -24.625 61.5 C-26.95163105 63.94908531 -29.2466963 66.04370527 -32 68 C-32.66 68 -33.32 68 -34 68 C-34 68.66 -34 69.32 -34 70 C-36.64 70.99 -39.28 71.98 -42 73 C-41.67 73.99 -41.34 74.98 -41 76 C-45.42607032 79.98802625 -50.32800557 82.23594528 -55.6875 84.6875 C-56.55439453 85.09033203 -57.42128906 85.49316406 -58.31445312 85.90820312 C-59.91088725 86.64989275 -61.50864681 87.38874106 -63.1081543 88.1237793 C-66.1634312 89.38398784 -66.1634312 89.38398784 -68 92 C-84.63414634 94.68292683 -84.63414634 94.68292683 -90 92 C-96.71527033 93.49073429 -105.10244671 96.15367006 -109 102 C-109.66 102 -110.32 102 -111 102 C-111.28875 102.639375 -111.5775 103.27875 -111.875 103.9375 C-113 106 -113 106 -115 107 C-115 107.66 -115 108.32 -115 109 C-116.485 109.495 -116.485 109.495 -118 110 C-118.33 111.65 -118.66 113.3 -119 115 C-119.66 115 -120.32 115 -121 115 C-121.33 116.32 -121.66 117.64 -122 119 C-122.99 118.67 -123.98 118.34 -125 118 C-125.29296875 112.04296875 -125.29296875 112.04296875 -125 110 C-124.02855436 108.97223867 -123.02391297 107.97550101 -122 107 C-120.59722993 104.4533666 -120.59722993 104.4533666 -119.375 101.625 C-118.94960937 100.68914062 -118.52421875 99.75328125 -118.0859375 98.7890625 C-117.06840322 96.17568308 -116.53435209 93.74145855 -116 91 C-115.484375 90.175 -114.96875 89.35 -114.4375 88.5 C-112.83810491 85.71844332 -112.72994056 84.15069341 -113 81 C-112.01 80.505 -112.01 80.505 -111 80 C-111.02320313 79.19175781 -111.04640625 78.38351563 -111.0703125 77.55078125 C-111.08835938 76.48214844 -111.10640625 75.41351563 -111.125 74.3125 C-111.14820313 73.25675781 -111.17140625 72.20101562 -111.1953125 71.11328125 C-110.99523409 67.92403137 -110.52613504 65.80043261 -109 63 C-107.00827818 62.30899447 -105.00838196 61.64097297 -103 61 C-102.40929986 59.05396726 -102.40929986 59.05396726 -102 57 C-99.75 55.5 -99.75 55.5 -97 54 C-94.43270753 52.01034833 -91.93758669 49.94824262 -89.4375 47.875 C-87.32590537 46.25069644 -85.36168875 45.18084438 -83 44 C-82.505 43.01 -82.505 43.01 -82 42 C-79.68295122 40.91871057 -77.37185099 39.94956253 -75 39 C-73.20767062 38.25158511 -71.41607429 37.50141356 -69.625 36.75 C-67.41699913 35.83253281 -65.20862932 34.91595329 -63 34 C-62.34112793 33.72607422 -61.68225586 33.45214844 -61.00341797 33.16992188 C-35.40221744 22.53200727 -35.40221744 22.53200727 -30.70703125 21.4921875 C-30.14371094 21.32976562 -29.58039063 21.16734375 -29 21 C-28.67 20.34 -28.34 19.68 -28 19 C-23.88879379 16.25919586 -19.66540429 14.55513476 -15 13 C-15 12.34 -15 11.68 -15 11 C-13.3203125 9.37890625 -13.3203125 9.37890625 -11.125 7.5625 C-8.53806278 5.41599116 -6.88815626 3.83223438 -5 1 C-2 0 -2 0 0 0 Z M-108 63 C-107 65 -107 65 -107 65 Z " fill="#1A2439" transform="translate(357,134)"/>
<path d="M0 0 C1.09957031 -0.020625 2.19914062 -0.04125 3.33203125 -0.0625 C10.01854989 -0.09422725 16.97399531 0.00170234 23 3.25 C24.26953125 5.35839844 24.26953125 5.35839844 25 7.25 C25.61875 6.569375 25.61875 6.569375 26.25 5.875 C29.35998159 2.98715996 32.04553183 1.99171297 36.265625 2.08984375 C37.07386719 2.10080078 37.88210937 2.11175781 38.71484375 2.12304688 C39.55144531 2.14431641 40.38804687 2.16558594 41.25 2.1875 C48.26596358 2.33618997 54.77981816 1.90391627 61.72265625 0.828125 C67.49629049 0.01846678 70.8632392 0.45828217 76 3.25 C76 3.91 76 4.57 76 5.25 C76.66 5.25 77.32 5.25 78 5.25 C78 4.59 78 3.93 78 3.25 C80.29364909 1.31473358 82.02731821 0.25182835 85.078125 0.24609375 C90.64714868 0.89714868 90.64714868 0.89714868 92 2.25 C93.60499041 2.40879964 95.21660923 2.50137967 96.828125 2.56640625 C97.84632324 2.60813965 98.86452148 2.64987305 99.91357422 2.69287109 C101.01459473 2.73234863 102.11561523 2.77182617 103.25 2.8125 C104.36777832 2.85713379 105.48555664 2.90176758 106.63720703 2.94775391 C112.17140646 3.15069283 117.68869673 3.27565302 123.2265625 3.20703125 C124.65887207 3.18950806 124.65887207 3.18950806 126.12011719 3.17163086 C127.92575184 3.14106756 129.7312182 3.09679979 131.53613281 3.03735352 C132.75187988 3.01499634 132.75187988 3.01499634 133.9921875 2.9921875 C134.69714355 2.9701123 135.40209961 2.94803711 136.12841797 2.92529297 C138.62874873 3.35908372 139.4939704 4.24021137 141 6.25 C141.1875 9.4375 141.1875 9.4375 141 12.25 C136.5586862 15.04075219 132.2519451 14.26776332 127.19140625 14.02734375 C123.6116753 14.27709242 121.9836762 15.37176816 119 17.25 C118.01 16.92 117.02 16.59 116 16.25 C116 15.59 116 14.93 116 14.25 C116.99 14.25 117.98 14.25 119 14.25 C118.67 13.59 118.34 12.93 118 12.25 C117.01 12.58 116.02 12.91 115 13.25 C115 13.91 115 14.57 115 15.25 C114.01604248 15.24214478 114.01604248 15.24214478 113.01220703 15.23413086 C110.04981437 15.21338728 107.08743697 15.20034824 104.125 15.1875 C103.09246094 15.17912109 102.05992187 15.17074219 100.99609375 15.16210938 C100.00996094 15.15888672 99.02382813 15.15566406 98.0078125 15.15234375 C97.09660645 15.14710693 96.18540039 15.14187012 95.24658203 15.13647461 C92.96312491 15.10114435 92.96312491 15.10114435 91 16.25 C88.29924637 16.13470636 85.62973122 15.96986945 82.9375 15.75 C80.28780089 15.53472626 77.65738055 15.36771342 75 15.25 C74.67 15.58 74.34 15.91 74 16.25 C72.5148924 16.68020974 71.01032649 17.04403339 69.5 17.375 C68.27796875 17.65730469 68.27796875 17.65730469 67.03125 17.9453125 C63.69258921 18.28089954 60.7891384 17.95671563 57.47558594 17.53027344 C52.22462629 16.93578609 46.9200456 16.88703348 41.640625 16.73242188 C36.39306811 16.52971013 32.00760593 15.78932784 27 14.25 C24.65739357 14.5102896 22.32275177 14.84952556 20 15.25 C12.0594183 15.8701473 12.0594183 15.8701473 8.4375 13.75 C7.963125 13.255 7.48875 12.76 7 12.25 C6.67 12.91 6.34 13.57 6 14.25 C4.68 13.92 3.36 13.59 2 13.25 C2 12.59 2 11.93 2 11.25 C1.01 11.25 0.02 11.25 -1 11.25 C-1 12.24 -1 13.23 -1 14.25 C-3.475 13.26 -3.475 13.26 -6 12.25 C-6.33 12.91 -6.66 13.57 -7 14.25 C-10.16115776 12.88016497 -10.9927092 12.2609362 -13 9.25 C-12.625 7.0625 -12.625 7.0625 -12 5.25 C-12.66 4.92 -13.32 4.59 -14 4.25 C-14 3.26 -14 2.27 -14 1.25 C-9.87226103 -0.81386948 -4.53525144 0.0206853 0 0 Z M-8 4.25 C-7 8.25 -7 8.25 -7 8.25 Z M-3 4.25 C-2 6.25 -2 6.25 -2 6.25 Z M52 7.25 C53 9.25 53 9.25 53 9.25 Z M60 7.25 C61 9.25 61 9.25 61 9.25 Z M72 7.25 C73 9.25 73 9.25 73 9.25 Z M100 7.25 C101 11.25 101 11.25 101 11.25 Z M120 7.25 C121 9.25 121 9.25 121 9.25 Z M135 7.25 C135 8.57 135 9.89 135 11.25 C135.66 10.92 136.32 10.59 137 10.25 C136.34 9.26 135.68 8.27 135 7.25 Z M112 8.25 C113 11.25 113 11.25 113 11.25 Z M108 10.25 C108 10.91 108 11.57 108 12.25 C108.66 12.25 109.32 12.25 110 12.25 C110 11.59 110 10.93 110 10.25 C109.34 10.25 108.68 10.25 108 10.25 Z M127 10.25 C128 12.25 128 12.25 128 12.25 Z M123 11.25 C124 13.25 124 13.25 124 13.25 Z " fill="#112043" transform="translate(186,297.75)"/>
<path d="M0 0 C3.1501766 -0.56110016 5.86321903 -0.70153258 9 0 C11.93332358 2.48860836 13.83125537 5.51572452 15.875 8.75 C16.42929687 9.575 16.98359375 10.4 17.5546875 11.25 C18.58692798 12.78843533 19.60656883 14.33545889 20.60888672 15.89355469 C21.99050498 17.98562249 23.49573207 19.99430943 25 22 C25.33 16.06 25.66 10.12 26 4 C24.35 3.67 22.7 3.34 21 3 C21.33 2.01 21.66 1.02 22 0 C25.63 0 29.26 0 33 0 C33 0.99 33 1.98 33 3 C32.01 3.33 31.02 3.66 30 4 C29.67 15.22 29.34 26.44 29 38 C25.18980404 36.09490202 24.2807405 35.44102694 21.9765625 32.18359375 C21.43 31.41853516 20.8834375 30.65347656 20.3203125 29.86523438 C19.76085937 29.06408203 19.20140625 28.26292969 18.625 27.4375 C18.07328125 26.66341797 17.5215625 25.88933594 16.953125 25.09179688 C13.1971473 19.79727902 9.57374917 14.41881234 6 9 C5.85507281 12.93711437 5.76605463 16.87354625 5.6875 20.8125 C5.64560547 21.93205078 5.60371094 23.05160156 5.56054688 24.20507812 C5.54443359 25.27822266 5.52832031 26.35136719 5.51171875 27.45703125 C5.48553467 28.44678955 5.45935059 29.43654785 5.43237305 30.45629883 C5.75194079 33.2535229 5.75194079 33.2535229 8.53051758 34.72143555 C9.34544678 35.14336182 10.16037598 35.56528809 11 36 C11 36.66 11 37.32 11 38 C7.39598519 38.08701039 3.79223988 38.14039388 0.1875 38.1875 C-0.83666016 38.21263672 -1.86082031 38.23777344 -2.91601562 38.26367188 C-4.39038086 38.27817383 -4.39038086 38.27817383 -5.89453125 38.29296875 C-6.80050049 38.3086792 -7.70646973 38.32438965 -8.63989258 38.34057617 C-11 38 -11 38 -12.80078125 36.80078125 C-14.41081524 34.38310806 -14.34310508 32.78572624 -14.29296875 29.89453125 C-14.2784668 28.42016602 -14.2784668 28.42016602 -14.26367188 26.91601562 C-14.23853516 25.89185547 -14.21339844 24.86769531 -14.1875 23.8125 C-14.17396484 22.77673828 -14.16042969 21.74097656 -14.14648438 20.67382812 C-14.11111389 18.11536301 -14.06175544 15.5579422 -14 13 C-14.144375 13.78375 -14.28875 14.5675 -14.4375 15.375 C-15 18 -15 18 -16 20 C-18.91517292 18.92598892 -20.77810176 18.22189824 -23 16 C-24.32 16 -25.64 16 -27 16 C-28.15316726 22.34241995 -28.09507063 28.56688704 -28 35 C-27.34 35 -26.68 35 -26 35 C-26 35.99 -26 36.98 -26 38 C-29.12498063 38.02895976 -32.2499269 38.04678483 -35.375 38.0625 C-36.26445312 38.07087891 -37.15390625 38.07925781 -38.0703125 38.08789062 C-39.34648437 38.09272461 -39.34648437 38.09272461 -40.6484375 38.09765625 C-41.82672119 38.10551147 -41.82672119 38.10551147 -43.02880859 38.11352539 C-45 38 -45 38 -47 37 C-47.66 37.66 -48.32 38.32 -49 39 C-51.05859375 38.86328125 -51.05859375 38.86328125 -53.4375 38.3125 C-54.21996094 38.14363281 -55.00242188 37.97476563 -55.80859375 37.80078125 C-58.24855804 36.9091722 -59.37793697 36.00755331 -61 34 C-62.02093454 31.0157298 -62.09707796 29.37948657 -61.3125 26.3125 C-59.82814217 23.69720287 -58.7801924 23.01940388 -56 22 C-56 21.34 -56 20.68 -56 20 C-57.98 19.67 -59.96 19.34 -62 19 C-63 16 -63 16 -62 13 C-56.35223173 9.88569452 -51.16439319 9.64174387 -45 11 C-44.34 11.37125 -43.68 11.7425 -43 12.125 C-37.9560488 14.33172865 -30.56859177 11.52506365 -25.39453125 10.3046875 C-22.6947205 9.9611553 -20.65065387 10.4681396 -18 11 C-13.73988445 9.38115609 -11.55779171 7.70879797 -9 4 C-8.34 4 -7.68 4 -7 4 C-7 5.98 -7 7.96 -7 10 C-4.525 10.495 -4.525 10.495 -2 11 C-2 11.66 -2 12.32 -2 13 C-3.65 13 -5.3 13 -7 13 C-6.505 21.415 -6.505 21.415 -6 30 C-5.34 30 -4.68 30 -4 30 C-3.505 30.99 -3.505 30.99 -3 32 C-1.35 31.67 0.3 31.34 2 31 C2.33 22.09 2.66 13.18 3 4 C1.68 3.67 0.36 3.34 -1 3 C-0.67 2.01 -0.34 1.02 0 0 Z M-41 15 C-41 21.27 -41 27.54 -41 34 C-40.34 34 -39.68 34 -39 34 C-38.87625 32.906875 -38.7525 31.81375 -38.625 30.6875 C-38 27 -38 27 -36 24 C-36.45375 23.2575 -36.9075 22.515 -37.375 21.75 C-38.67426015 19.55125206 -39.85784682 17.28430636 -41 15 Z M-38 16 C-37.67 16.99 -37.34 17.98 -37 19 C-36.34 19 -35.68 19 -35 19 C-35.33 18.01 -35.66 17.02 -36 16 C-36.66 16 -37.32 16 -38 16 Z M-53 25 C-53.66 26.98 -54.32 28.96 -55 31 C-52.525 31.495 -52.525 31.495 -50 32 C-50 30.35 -50 28.7 -50 27 C-50.66 27 -51.32 27 -52 27 C-52.33 26.34 -52.66 25.68 -53 25 Z M-54 33 C-53.01 33.99 -52.02 34.98 -51 36 C-51.33 35.01 -51.66 34.02 -52 33 C-52.66 33 -53.32 33 -54 33 Z M1 33 C0.34 33.66 -0.32 34.32 -1 35 C0.32 34.67 1.64 34.34 3 34 C2.34 33.67 1.68 33.34 1 33 Z M-38 34 C-37.67 34.66 -37.34 35.32 -37 36 C-36.67 35.34 -36.34 34.68 -36 34 C-36.66 34 -37.32 34 -38 34 Z " fill="#182339" transform="translate(262,246)"/>
<path d="M0 0 C4.29 0 8.58 0 13 0 C13.33 1.65 13.66 3.3 14 5 C13.01 6.485 13.01 6.485 12 8 C11.67 7.01 11.34 6.02 11 5 C10.67 9.29 10.34 13.58 10 18 C10.66 18 11.32 18 12 18 C12.33 16.68 12.66 15.36 13 14 C13 15.32 13 16.64 13 18 C16.3 18 19.6 18 23 18 C24.04976964 14.85069107 24.10131595 12.61185544 24.0625 9.3125 C24.05347656 8.31863281 24.04445312 7.32476562 24.03515625 6.30078125 C24.02355469 5.54152344 24.01195312 4.78226563 24 4 C23.34 3.67 22.68 3.34 22 3 C22.33 2.01 22.66 1.02 23 0 C26.96 0 30.92 0 35 0 C35 0.99 35 1.98 35 3 C34.34 3.33 33.68 3.66 33 4 C33 13.9 33 23.8 33 34 C33.99 34.495 33.99 34.495 35 35 C35 35.99 35 36.98 35 38 C31.04 38 27.08 38 23 38 C23 37.01 23 36.02 23 35 C23.66 35 24.32 35 25 35 C25 31.37 25 27.74 25 24 C21.2311658 22.1155829 19.31987525 21.66570538 15.25 21.375 C12.65125 21.189375 12.65125 21.189375 10 21 C10.33 25.62 10.66 30.24 11 35 C11.99 35.33 12.98 35.66 14 36 C14 36.66 14 37.32 14 38 C9.71 38 5.42 38 1 38 C0.505 36.515 0.505 36.515 0 35 C0.495 34.505 0.495 34.505 1 34 C2.70574251 31.05726865 3.32710049 28.62619446 3.625 25.25 C3.69976562 24.45078125 3.77453125 23.6515625 3.8515625 22.828125 C3.90054688 22.22484375 3.94953125 21.6215625 4 21 C3.34 21 2.68 21 2 21 C2.02320313 20.11957031 2.04640625 19.23914063 2.0703125 18.33203125 C2.08835938 17.17058594 2.10640625 16.00914062 2.125 14.8125 C2.14820313 13.66394531 2.17140625 12.51539063 2.1953125 11.33203125 C2.00313801 8.05353443 1.30350369 5.9713726 0 3 C0 2.01 0 1.02 0 0 Z " fill="#121A2C" transform="translate(140,246)"/>
<path d="M0 0 C0 1.32 0 2.64 0 4 C0.99 3.01 1.98 2.02 3 1 C3.55413574 1.33193359 4.10827148 1.66386719 4.67919922 2.00585938 C7.43006141 3.18422155 9.16101154 3.12410658 12.1328125 2.90625 C13.10347656 2.84566406 14.07414062 2.78507812 15.07421875 2.72265625 C16.08097656 2.64917969 17.08773437 2.57570313 18.125 2.5 C20.12693354 2.35500608 22.1295543 2.21912035 24.1328125 2.09375 C25.01855957 2.02865234 25.90430664 1.96355469 26.81689453 1.89648438 C29 2 29 2 31 4 C31.53625 4.45375 32.0725 4.9075 32.625 5.375 C34 7 34 7 34 11 C34.66 11.33 35.32 11.66 36 12 C34.68 12.33 33.36 12.66 32 13 C32 13.66 32 14.32 32 15 C31.2575 14.814375 30.515 14.62875 29.75 14.4375 C27.14415319 13.83579501 27.14415319 13.83579501 25.20361328 14.4621582 C20.25966294 15.66884141 14.93694404 15.1847756 9.875 15.1875 C8.66972656 15.19974609 7.46445313 15.21199219 6.22265625 15.22460938 C5.07410156 15.22654297 3.92554688 15.22847656 2.7421875 15.23046875 C1.6888623 15.23457764 0.63553711 15.23868652 -0.44970703 15.24291992 C-3 15 -3 15 -5 13 C-5.30078125 10.46875 -5.30078125 10.46875 -5.3125 7.5 C-5.32925781 6.5203125 -5.34601563 5.540625 -5.36328125 4.53125 C-5.24339844 3.6959375 -5.12351563 2.860625 -5 2 C-2 0 -2 0 0 0 Z M12 4 C13 6 13 6 13 6 Z M19 6 C19 7.65 19 9.3 19 11 C19.33 11 19.66 11 20 11 C20 9.35 20 7.7 20 6 C19.67 6 19.34 6 19 6 Z M1 9 C2 11 2 11 2 11 Z " fill="#102946" transform="translate(234,319)"/>
<path d="M0 0 C3 2.5625 3 2.5625 5 5 C5.66 4.67 6.32 4.34 7 4 C7.33 5.32 7.66 6.64 8 8 C7.34 8 6.68 8 6 8 C6.33 10.64 6.66 13.28 7 16 C7.33 16 7.66 16 8 16 C8 18.64 8 21.28 8 24 C7.443125 23.7525 6.88625 23.505 6.3125 23.25 C5.549375 23.1675 4.78625 23.085 4 23 C3.278125 23.639375 2.55625 24.27875 1.8125 24.9375 C-2.10269076 27.80863989 -5.28970948 27.7022615 -10 27 C-13.08002555 25.72781553 -14.59345012 24.44860676 -16.8125 22 C-18.98516212 16.51116937 -19.02333458 10.45600298 -16.75 5 C-11.98499792 -0.44571666 -7.08457396 -2.08126589 0 0 Z M-8 2 C-10.59601379 5.81766733 -9.73343671 8.59937971 -9 13 C-8.90660122 15.67415452 -8.95537636 18.32258181 -9 21 C-9 21.99 -9 22.98 -9 24 C-7.35 24.33 -5.7 24.66 -4 25 C-3.87625 24.21625 -3.7525 23.4325 -3.625 22.625 C-3 20 -3 20 -1 18 C-0.64146336 15.24049646 -0.64146336 15.24049646 -0.6875 12.125 C-0.67074219 11.07570313 -0.65398437 10.02640625 -0.63671875 8.9453125 C-1.04199961 5.659487 -1.58834522 4.25378122 -4 2 C-5.32 2 -6.64 2 -8 2 Z M-11 17 C-10 19 -10 19 -10 19 Z " fill="#1D263B" transform="translate(314,257)"/>
<path d="M0 0 C3.80812781 2.05053036 6.71023757 3.74378398 8 8 C8 9.65 8 11.3 8 13 C3.05 13 -1.9 13 -7 13 C-5.7284644 19.59529756 -5.7284644 19.59529756 -3 22 C1.21354337 22.37453719 4.18610442 21.79477439 8 20 C7.09126425 23.05665662 6.32469175 24.72305703 3.875 26.8125 C0.16498042 28.34489939 -3.08708361 28.81168129 -7 28 C-10.56143319 25.75761614 -12.48924959 23.97708775 -14.4375 20.25 C-15.36600045 14.88533071 -14.92565878 10.1290152 -12.75 5.125 C-9.15172615 0.75566746 -5.63558578 -0.80508368 0 0 Z M-6 4 C-6.33 6.31 -6.66 8.62 -7 11 C-4.69328085 8.28450846 -4.69328085 8.28450846 -5.375 5.8125 C-5.58125 5.214375 -5.7875 4.61625 -6 4 Z " fill="#1D2740" transform="translate(191,256)"/>
<path d="M0 0 C3.48069459 3.32936004 5.71962479 6.09343378 6 11 C4.18884044 12.81115956 1.38721773 12.38199448 -1.0625 12.5625 C-2.16722656 12.64628906 -3.27195312 12.73007812 -4.41015625 12.81640625 C-5.26480469 12.87699219 -6.11945313 12.93757813 -7 13 C-6.81535634 17.34184202 -6.81535634 17.34184202 -5 21 C-1.50265772 20.61140641 1.65788261 20.11403913 5 19 C4.6858889 21.93170364 3.9610478 23.04249331 1.9375 25.25 C-1.76968998 27.45853871 -4.83443221 27.81517961 -9 27 C-13.04899476 24.90052124 -15.34174728 23.23608194 -17 19 C-17.68078869 13.75951028 -17.61301835 9.32034723 -15.375 4.5 C-10.68685219 -0.43489243 -6.63526773 -2.05090093 0 0 Z M-7 2 C-7 2.99 -7 3.98 -7 5 C-7 6.66666667 -7 8.33333333 -7 10 C-5.35 10 -3.7 10 -2 10 C-2.33 7.69 -2.66 5.38 -3 3 C-4.32 2.67 -5.64 2.34 -7 2 Z M-9 4 C-8 6 -8 6 -8 6 Z M-10 12 C-9 16 -9 16 -9 16 Z " fill="#182236" transform="translate(353,257)"/>
<path d="M0 0 C0.33 0 0.66 0 1 0 C1 2.97 1 5.94 1 9 C1.66 9 2.32 9 3 9 C3 8.34 3 7.68 3 7 C3.99 7 4.98 7 6 7 C6 6.01 6 5.02 6 4 C7.36125 4.0309375 7.36125 4.0309375 8.75 4.0625 C11.42672588 4.0110245 13.46988052 3.7784983 16 3 C18.125 8.625 18.125 8.625 17 12 C15.3603125 12.185625 15.3603125 12.185625 13.6875 12.375 C9.92618198 12.75464801 9.92618198 12.75464801 7 15 C4.3125 15.125 4.3125 15.125 2 15 C1.67 14.34 1.34 13.68 1 13 C-1.03008491 12.68481785 -1.03008491 12.68481785 -3.375 12.625 C-7.74305556 12.25694444 -7.74305556 12.25694444 -10.0625 9.9375 C-10.371875 9.298125 -10.68125 8.65875 -11 8 C-11.33 9.32 -11.66 10.64 -12 12 C-13.45823212 12.0270043 -14.91660675 12.04639787 -16.375 12.0625 C-17.18710938 12.07410156 -17.99921875 12.08570313 -18.8359375 12.09765625 C-21 12 -21 12 -23 11 C-23 8.69 -23 6.38 -23 4 C-22.01 4 -21.02 4 -20 4 C-20 3.34 -20 2.68 -20 2 C-19.01 2 -18.02 2 -17 2 C-17 2.66 -17 3.32 -17 4 C-16.34 3.67 -15.68 3.34 -15 3 C-13.16871229 2.90391392 -11.33380041 2.87017421 -9.5 2.875 C-8.5203125 2.87242187 -7.540625 2.86984375 -6.53125 2.8671875 C-4 3 -4 3 -2 4 C-1.34 2.68 -0.68 1.36 0 0 Z " fill="#152745" transform="translate(241,300)"/>
<path d="M0 0 C1 1 2 2 3 3 C3.99 2.34 4.98 1.68 6 1 C10.1925788 -0.2262008 13.98899645 0.07384082 18.3125 0.4375 C19.56675781 0.53933594 20.82101562 0.64117187 22.11328125 0.74609375 C23.54220703 0.87177734 23.54220703 0.87177734 25 1 C25 2.98 25 4.96 25 7 C25.66 5.02 26.32 3.04 27 1 C28.32 1.33 29.64 1.66 31 2 C31 3.98 31 5.96 31 8 C26.5586862 10.79075219 22.2519451 10.01776332 17.19140625 9.77734375 C13.6116753 10.02709242 11.9836762 11.12176816 9 13 C8.01 12.67 7.02 12.34 6 12 C6 11.34 6 10.68 6 10 C6.99 10 7.98 10 9 10 C8.67 9.34 8.34 8.68 8 8 C7.01 8.33 6.02 8.66 5 9 C5 9.66 5 10.32 5 11 C3.35 10.67 1.7 10.34 0 10 C0 8.68 0 7.36 0 6 C-0.66 6 -1.32 6 -2 6 C-2.33 6.99 -2.66 7.98 -3 9 C-4.65 8.67 -6.3 8.34 -8 8 C-7.34 7.67 -6.68 7.34 -6 7 C-4.86649466 4.98330173 -4.86649466 4.98330173 -4 3 C-4.66 2.34 -5.32 1.68 -6 1 C-3.125 0.375 -3.125 0.375 0 0 Z M10 3 C11 5 11 5 11 5 Z M17 6 C18 8 18 8 18 8 Z M13 7 C14 9 14 9 14 9 Z " fill="#142641" transform="translate(296,302)"/>
<path d="M0 0 C0.66 0 1.32 0 2 0 C2.268125 0.969375 2.53625 1.93875 2.8125 2.9375 C3.204375 3.948125 3.59625 4.95875 4 6 C4.99 6.33 5.98 6.66 7 7 C7 7.66 7 8.32 7 9 C5.35 9 3.7 9 2 9 C2 14.94 2 20.88 2 27 C3.32 27.66 4.64 28.32 6 29 C6 30.32 6 31.64 6 33 C3.20129973 34.39935013 1.09501208 34.25265405 -2 34 C-3.6730957 32.8034668 -3.6730957 32.8034668 -5 31 C-5.34057617 28.63989258 -5.34057617 28.63989258 -5.29296875 25.89453125 C-5.28330078 24.91162109 -5.27363281 23.92871094 -5.26367188 22.91601562 C-5.23853516 21.89185547 -5.21339844 20.86769531 -5.1875 19.8125 C-5.16719727 18.25885742 -5.16719727 18.25885742 -5.14648438 16.67382812 C-5.11111389 14.11536301 -5.06175544 11.5579422 -5 9 C-5.99 9 -6.98 9 -8 9 C-6.73786958 5.21360875 -5.34654649 4.95895404 -2 3 C-1.34 2.01 -0.68 1.02 0 0 Z M2 5 C3 7 3 7 3 7 Z M2 28 C2 28.66 2 29.32 2 30 C2.99 29.67 3.98 29.34 5 29 C4.01 28.67 3.02 28.34 2 28 Z " fill="#1A243C" transform="translate(328,250)"/>
<path d="M0 0 C0.90105469 0.00902344 1.80210937 0.01804687 2.73046875 0.02734375 C3.41753906 0.03894531 4.10460937 0.05054688 4.8125 0.0625 C5.3075 1.5475 5.3075 1.5475 5.8125 3.0625 C4.8125 4.0625 4.8125 4.0625 1.75 4.125 C0.780625 4.104375 -0.18875 4.08375 -1.1875 4.0625 C-1.1875 4.7225 -1.1875 5.3825 -1.1875 6.0625 C-1.8475 6.0625 -2.5075 6.0625 -3.1875 6.0625 C-3.6825 4.0825 -3.6825 4.0825 -4.1875 2.0625 C-4.8475 3.3825 -5.5075 4.7025 -6.1875 6.0625 C-6.8475 5.7325 -7.5075 5.4025 -8.1875 5.0625 C-10.3947923 4.99157158 -12.60417452 4.97834975 -14.8125 5 C-16.59527344 5.01353516 -16.59527344 5.01353516 -18.4140625 5.02734375 C-19.78691406 5.04474609 -19.78691406 5.04474609 -21.1875 5.0625 C-21.1875 4.4025 -21.1875 3.7425 -21.1875 3.0625 C-22.1775 3.0625 -23.1675 3.0625 -24.1875 3.0625 C-24.1875 3.7225 -24.1875 4.3825 -24.1875 5.0625 C-25.1775 5.3925 -26.1675 5.7225 -27.1875 6.0625 C-27.1875 7.3825 -27.1875 8.7025 -27.1875 10.0625 C-25.40092243 12.27620051 -25.40092243 12.27620051 -23.0234375 12.2578125 C-22.21132812 12.23460937 -21.39921875 12.21140625 -20.5625 12.1875 C-19.74523437 12.16945313 -18.92796875 12.15140625 -18.0859375 12.1328125 C-17.45945313 12.10960937 -16.83296875 12.08640625 -16.1875 12.0625 C-16.1875 10.4125 -16.1875 8.7625 -16.1875 7.0625 C-15.8575 7.7225 -15.5275 8.3825 -15.1875 9.0625 C-14.5275 9.3925 -13.8675 9.7225 -13.1875 10.0625 C-12.8575 10.7225 -12.5275 11.3825 -12.1875 12.0625 C-10.06173218 12.52901207 -10.06173218 12.52901207 -7.625 12.6875 C-6.79871094 12.76226562 -5.97242188 12.83703125 -5.12109375 12.9140625 C-4.48300781 12.96304687 -3.84492188 13.01203125 -3.1875 13.0625 C-3.1875 14.0525 -3.1875 15.0425 -3.1875 16.0625 C-6.70892777 15.95168111 -10.22937564 15.82127927 -13.75 15.6875 C-14.74064453 15.6565625 -15.73128906 15.625625 -16.75195312 15.59375 C-22.27168253 15.37369434 -26.9265487 14.68959834 -32.1875 13.0625 C-35.997685 13.35507208 -35.997685 13.35507208 -39.1875 14.0625 C-37.8675 13.7325 -36.5475 13.4025 -35.1875 13.0625 C-35.1875 12.4025 -35.1875 11.7425 -35.1875 11.0625 C-35.8475 10.4025 -36.5075 9.7425 -37.1875 9.0625 C-36.1975 9.0625 -35.2075 9.0625 -34.1875 9.0625 C-34.14625 8.299375 -34.105 7.53625 -34.0625 6.75 C-33.1875 4.0625 -33.1875 4.0625 -30.73828125 2.40234375 C-26.16822194 0.67788793 -22.32914131 0.76753787 -17.5 0.9375 C-15.80869947 0.98089941 -14.11728574 1.02013988 -12.42578125 1.0546875 C-11.68368408 1.07901855 -10.94158691 1.10334961 -10.17700195 1.12841797 C-6.6691564 1.01219287 -3.62404049 -0.04706546 0 0 Z " fill="#161E43" transform="translate(245.1875,298.9375)"/>
<path d="M0 0 C1.32 0.33 2.64 0.66 4 1 C4.99494409 4.09538161 4.85564724 5.89827875 4 9 C4.33 9.33 4.66 9.66 5 10 C5.09823996 11.47648876 5.12973519 12.95775417 5.125 14.4375 C5.12757813 15.24058594 5.13015625 16.04367187 5.1328125 16.87109375 C5 19 5 19 4 21 C3.34 21 2.68 21 2 21 C2 21.66 2 22.32 2 23 C2.66 23 3.32 23 4 23 C3.67 23.66 3.34 24.32 3 25 C1.55989519 24.74337755 0.1229313 24.46909179 -1.3125 24.1875 C-2.11300781 24.03667969 -2.91351563 23.88585937 -3.73828125 23.73046875 C-6.27624307 22.9107816 -7.34845947 22.06699017 -9 20 C-10.02093454 17.0157298 -10.09707796 15.37948657 -9.3125 12.3125 C-7.77730319 9.60762944 -6.69924576 9.34962288 -4 8 C-2.83046584 5.57616923 -2.83046584 5.57616923 -2 3 C-1.34 2.01 -0.68 1.02 0 0 Z M-1 11 C-1.66 12.98 -2.32 14.96 -3 17 C-0.525 17.495 -0.525 17.495 2 18 C2 16.35 2 14.7 2 13 C1.34 13 0.68 13 0 13 C-0.33 12.34 -0.66 11.68 -1 11 Z M-2 19 C-1.01 19.99 -0.02 20.98 1 22 C0.67 21.01 0.34 20.02 0 19 C-0.66 19 -1.32 19 -2 19 Z " fill="#192240" transform="translate(210,260)"/>
<path d="M0 0 C3.96 0 7.92 0 12 0 C12 0.99 12 1.98 12 3 C11.01 3.495 11.01 3.495 10 4 C10 13.9 10 23.8 10 34 C10.66 34.33 11.32 34.66 12 35 C12 35.66 12 36.32 12 37 C7.25 36.125 7.25 36.125 5 35 C5.33 33.68 5.66 32.36 6 31 C5.34 31 4.68 31 4 31 C3.22827355 26.62688345 3.01360777 23.31546601 4 19 C3.67 18.34 3.34 17.68 3 17 C2.76360829 13.91815246 2.61758293 10.83760526 2.4765625 7.75 C2.31929687 6.8425 2.16203125 5.935 2 5 C1.01 4.34 0.02 3.68 -1 3 C-0.67 2.01 -0.34 1.02 0 0 Z " fill="#1C2640" transform="translate(163,246)"/>
<path d="M0 0 C2.0347656 3.71565892 1.28818793 6.53751367 0.734375 10.65234375 C0.29445933 15.05728882 0.82190244 19.25899266 1.4375 23.625 C-0.5425 23.295 -2.5225 22.965 -4.5625 22.625 C-4.5625 23.285 -4.5625 23.945 -4.5625 24.625 C-5.5525 24.625 -6.5425 24.625 -7.5625 24.625 C-7.5625 23.965 -7.5625 23.305 -7.5625 22.625 C-6.9025 22.625 -6.2425 22.625 -5.5625 22.625 C-5.5625 21.86574219 -5.5625 21.10648437 -5.5625 20.32421875 C-5.5625 16.42447917 -5.5625 12.52473958 -5.5625 8.625 C-5.87919821 6.28935067 -6.21070803 3.9556218 -6.5625 1.625 C-7.5525 1.625 -8.5425 1.625 -9.5625 1.625 C-10.5525 3.605 -11.5425 5.585 -12.5625 7.625 C-14.8725 7.295 -17.1825 6.965 -19.5625 6.625 C-20.5625 3.625 -20.5625 3.625 -19.5625 0.625 C-13.20198082 -2.88233224 -6.47329423 -3.47347495 0 0 Z " fill="#192640" transform="translate(219.5625,258.375)"/>
<path d="M0 0 C0.598125 0.350625 1.19625 0.70125 1.8125 1.0625 C-0.8275 2.0525 -3.4675 3.0425 -6.1875 4.0625 C-5.6925 5.5475 -5.6925 5.5475 -5.1875 7.0625 C-8.64606848 10.01245547 -11.98771485 12.28925738 -16.1875 14.0625 C-16.8475 13.7325 -17.5075 13.4025 -18.1875 13.0625 C-15.82129989 10.44722619 -13.245452 8.79809438 -10.1875 7.0625 C-10.8475 6.4025 -11.5075 5.7425 -12.1875 5.0625 C-16.52944936 5.15945116 -16.52944936 5.15945116 -20.1875 7.0625 C-22.0622894 7.15761333 -23.93760455 7.2468191 -25.81396484 7.30297852 C-32.9071635 7.52403214 -38.82379494 8.04995449 -45.3046875 11.22265625 C-47.1875 12.0625 -47.1875 12.0625 -50.1875 12.0625 C-49.8575 11.0725 -49.5275 10.0825 -49.1875 9.0625 C-49.5175 8.0725 -49.8475 7.0825 -50.1875 6.0625 C-49.8575 5.7325 -49.5275 5.4025 -49.1875 5.0625 C-48.1975 5.083125 -47.2075 5.10375 -46.1875 5.125 C-43.31403453 5.17682313 -40.93167031 4.81041279 -38.16015625 4.06640625 C-32.63372317 2.78589127 -27.27193766 2.84033231 -21.625 2.9375 C-20.61630859 2.94652344 -19.60761719 2.95554688 -18.56835938 2.96484375 C-16.10781543 2.98816644 -13.64779104 3.02089237 -11.1875 3.0625 C-10.8575 2.4025 -10.5275 1.7425 -10.1875 1.0625 C-8.53358154 0.67078247 -6.86404729 0.34192455 -5.1875 0.0625 C-2.1875 -0.9375 -2.1875 -0.9375 0 0 Z " fill="#0E1727" transform="translate(321.1875,202.9375)"/>
<path d="M0 0 C0 1.32 0 2.64 0 4 C0.99 3.01 1.98 2.02 3 1 C4.32 1.99 5.64 2.98 7 4 C6.01 5.485 6.01 5.485 5 7 C4.01 7 3.02 7 2 7 C1.34 8.65 0.68 10.3 0 12 C1.80597656 11.98259766 1.80597656 11.98259766 3.6484375 11.96484375 C5.22395679 11.95546566 6.79947775 11.94636548 8.375 11.9375 C9.1690625 11.92912109 9.963125 11.92074219 10.78125 11.91210938 C16.7734375 11.88671875 16.7734375 11.88671875 19 13 C19.33 11.02 19.66 9.04 20 7 C21.98 7.66 23.96 8.32 26 9 C26 9.99 26 10.98 26 12 C26.66 12.33 27.32 12.66 28 13 C24.15664031 14.78414807 21.11864571 15.25655273 16.89453125 15.265625 C15.74662109 15.26820313 14.59871094 15.27078125 13.41601562 15.2734375 C11.63227539 15.26183594 11.63227539 15.26183594 9.8125 15.25 C8.61173828 15.25773437 7.41097656 15.26546875 6.17382812 15.2734375 C5.02978516 15.27085937 3.88574219 15.26828125 2.70703125 15.265625 C1.6600708 15.26336914 0.61311035 15.26111328 -0.46557617 15.25878906 C-3 15 -3 15 -5 13 C-5.30078125 10.46875 -5.30078125 10.46875 -5.3125 7.5 C-5.32925781 6.5203125 -5.34601563 5.540625 -5.36328125 4.53125 C-5.24339844 3.6959375 -5.12351563 2.860625 -5 2 C-2 0 -2 0 0 0 Z " fill="#070F31" transform="translate(234,319)"/>
<path d="M0 0 C1.125 1.75 1.125 1.75 2 4 C1.4375 6.1875 1.4375 6.1875 0 8 C-2.625 8.75 -2.625 8.75 -5 9 C-5 9.66 -5 10.32 -5 11 C-7.31 11.33 -9.62 11.66 -12 12 C-12.33 12.99 -12.66 13.98 -13 15 C-13.99 15.33 -14.98 15.66 -16 16 C-16.66 16.66 -17.32 17.32 -18 18 C-20 20 -20 20 -23 21 C-23.99 20.67 -24.98 20.34 -26 20 C-24.48152821 15.67819568 -23.13350839 13.03442831 -18.9375 11 C-16.66757845 10.02674942 -16.66757845 10.02674942 -15 7 C-13.06950329 6.24743349 -11.13527599 5.50158937 -9.17578125 4.828125 C-5.88310403 3.57489776 -3.01156866 1.8194894 0 0 Z M-1 4 C0 6 0 6 0 6 Z " fill="#1F232A" transform="translate(320,164)"/>
<path d="M0 0 C0.66 0 1.32 0 2 0 C2 1.98 2 3.96 2 6 C3.65 6.33 5.3 6.66 7 7 C7 7.66 7 8.32 7 9 C5.35 9 3.7 9 2 9 C2.33 14.61 2.66 20.22 3 26 C3.66 26 4.32 26 5 26 C5.33 26.66 5.66 27.32 6 28 C7.65 27.67 9.3 27.34 11 27 C11.33 25.68 11.66 24.36 12 23 C12 24.98 12 26.96 12 29 C10.68 29.33 9.36 29.66 8 30 C8 30.66 8 31.32 8 32 C10.97 32.33 13.94 32.66 17 33 C17 33.33 17 33.66 17 34 C13.89614789 34.11613204 10.79285338 34.18722029 7.6875 34.25 C6.80642578 34.28351563 5.92535156 34.31703125 5.01757812 34.3515625 C-1.52876499 34.45112665 -1.52876499 34.45112665 -4.10546875 31.984375 C-4.54826172 31.00210937 -4.54826172 31.00210937 -5 30 C-3.68 30 -2.36 30 -1 30 C-0.34 29.67 0.32 29.34 1 29 C0.83628906 28.48953125 0.67257813 27.9790625 0.50390625 27.453125 C-0.16698481 24.18708172 -0.0933456 21.0813253 -0.0625 17.75 C-0.05347656 16.48671875 -0.04445312 15.2234375 -0.03515625 13.921875 C-0.02355469 12.95765625 -0.01195312 11.9934375 0 11 C-1.32 10.67 -2.64 10.34 -4 10 C-4 9.34 -4 8.68 -4 8 C-5.32 8 -6.64 8 -8 8 C-8 7.34 -8 6.68 -8 6 C-7.236875 5.7525 -6.47375 5.505 -5.6875 5.25 C-2.73819971 3.87823242 -1.82568981 2.6081283 0 0 Z " fill="#152032" transform="translate(253,250)"/>
<path d="M0 0 C0.33 0 0.66 0 1 0 C1.06058594 0.81984375 1.12117188 1.6396875 1.18359375 2.484375 C1.30927734 4.10085937 1.30927734 4.10085937 1.4375 5.75 C1.51871094 6.81734375 1.59992188 7.8846875 1.68359375 8.984375 C1.90948551 11.87696245 1.90948551 11.87696245 2.5625 14.1328125 C3.07248521 16.3093565 2.90154128 17.92332451 2.5625 20.125 C1.95211479 23.67727362 1.95211479 23.67727362 2 26 C2.66 26 3.32 26 4 26 C4.33 26.99 4.66 27.98 5 29 C6 31.5 6 31.5 10 33 C6.04 33 2.08 33 -2 33 C-2 32.01 -2 31.02 -2 30 C-1.34 30 -0.68 30 0 30 C0 26.37 0 22.74 0 19 C-3.7688342 17.1155829 -5.68012475 16.66570538 -9.75 16.375 C-10.73484375 16.30023438 -11.7196875 16.22546875 -12.734375 16.1484375 C-13.48203125 16.09945313 -14.2296875 16.05046875 -15 16 C-15.33 16.99 -15.66 17.98 -16 19 C-17.05404945 15.01803543 -16.84098656 12.01804691 -16 8 C-15.67 8 -15.34 8 -15 8 C-15 9.65 -15 11.3 -15 13 C-14.34 13 -13.68 13 -13 13 C-12.67 11.68 -12.34 10.36 -12 9 C-12 10.32 -12 11.64 -12 13 C-8.7 13 -5.4 13 -2 13 C-1.34 8.71 -0.68 4.42 0 0 Z " fill="#0E1A2D" transform="translate(165,251)"/>
<path d="M0 0 C0.99 0.33 1.98 0.66 3 1 C3.33 2.65 3.66 4.3 4 6 C4.66 6 5.32 6 6 6 C6 10.95 6 15.9 6 21 C5.01 21 4.02 21 3 21 C3 21.66 3 22.32 3 23 C6.46941546 22.54177532 9.67395049 22.10868317 13 21 C13.66 21.33 14.32 21.66 15 22 C15 22.99 15 23.98 15 25 C11.87517438 25.08687496 8.75065754 25.14034568 5.625 25.1875 C4.73554688 25.21263672 3.84609375 25.23777344 2.9296875 25.26367188 C1.65351563 25.27817383 1.65351563 25.27817383 0.3515625 25.29296875 C-0.82672119 25.31653442 -0.82672119 25.31653442 -2.02880859 25.34057617 C-2.67930176 25.22818604 -3.32979492 25.1157959 -4 25 C-4.66 24.01 -5.32 23.02 -6 22 C-4.35 22 -2.7 22 -1 22 C-1.09539062 20.96359375 -1.19078125 19.9271875 -1.2890625 18.859375 C-1.40164406 17.48963271 -1.51358988 16.11983807 -1.625 14.75 C-1.72167969 13.72712891 -1.72167969 13.72712891 -1.8203125 12.68359375 C-2.14562321 8.49521834 -1.94591829 6.89183658 0 3 C0 8.94 0 14.88 0 21 C0.66 21 1.32 21 2 21 C1.95875 19.906875 1.9175 18.81375 1.875 17.6875 C2 14 2 14 4 11 C3.525625 10.29875 3.05125 9.5975 2.5625 8.875 C0.91260143 5.83918663 0.39631536 3.40831214 0 0 Z " fill="#172031" transform="translate(221,259)"/>
<path d="M0 0 C1.32 0 2.64 0 4 0 C4 0.66 4 1.32 4 2 C5.65 2 7.3 2 9 2 C8.99476318 2.59538574 8.98952637 3.19077148 8.98413086 3.80419922 C8.96338001 6.49445547 8.95034593 9.18469489 8.9375 11.875 C8.92912109 12.81214844 8.92074219 13.74929688 8.91210938 14.71484375 C8.90888672 15.61074219 8.90566406 16.50664062 8.90234375 17.4296875 C8.89710693 18.25710449 8.89187012 19.08452148 8.88647461 19.93701172 C8.86647862 22.06411757 8.86647862 22.06411757 10 24 C5.25 23.125 5.25 23.125 3 22 C3 15.07 3 8.14 3 1 C2.67 1.66 2.34 2.32 2 3 C1.34 3 0.68 3 0 3 C0 2.01 0 1.02 0 0 Z " fill="#1B2641" transform="translate(245,258)"/>
<path d="M0 0 C5.28557366 -0.50338797 7.90950339 0.65323004 12 4 C14.12272015 6.99110566 14.20086799 9.38437619 14 13 C12.7625 12.7834375 12.7625 12.7834375 11.5 12.5625 C7.67313722 11.94746848 3.84783293 11.46439363 0 11 C0.33 8.69 0.66 6.38 1 4 C1.99 3.67 2.98 3.34 4 3 C2.68 2.01 1.36 1.02 0 0 Z " fill="#172235" transform="translate(185,256)"/>
<path d="M0 0 C0.83156616 0.23771118 0.83156616 0.23771118 1.67993164 0.48022461 C4.19926991 1.04464334 6.54162977 1.21049017 9.12109375 1.31640625 C10.12986572 1.35838135 11.1386377 1.40035645 12.17797852 1.44360352 C13.25362061 1.48283936 14.3292627 1.5220752 15.4375 1.5625 C16.53956787 1.6049585 17.64163574 1.64741699 18.77709961 1.69116211 C29.18698162 2.06238342 39.58517445 2.09856302 50 2 C50.495 2.99 50.495 2.99 51 4 C50.34 4 49.68 4 49 4 C49 4.66 49 5.32 49 6 C48.236875 5.855625 47.47375 5.71125 46.6875 5.5625 C36.14661819 3.60066612 36.14661819 3.60066612 26 6 C25.67 6.66 25.34 7.32 25 8 C24.5359375 6.9790625 24.5359375 6.9790625 24.0625 5.9375 C22.21667015 3.77023984 22.21667015 3.77023984 19.90234375 3.95703125 C18.31574125 4.15051936 16.73285965 4.37785673 15.15625 4.640625 C12.24196395 5.12633934 9.90648651 4.98246622 7 4.4375 C3.95782944 3.76415722 3.95782944 3.76415722 1 5 C0.67 3.35 0.34 1.7 0 0 Z " fill="#00002D" transform="translate(274,299)"/>
<path d="M0 0 C1.09957031 -0.020625 2.19914062 -0.04125 3.33203125 -0.0625 C10.40478021 -0.0960599 16.36691955 0.76820974 23 3.25 C23 3.91 23 4.57 23 5.25 C21.02 5.58 19.04 5.91 17 6.25 C16.67 5.26 16.34 4.27 16 3.25 C15.01 3.25 14.02 3.25 13 3.25 C12.67 4.24 12.34 5.23 12 6.25 C12 4.93 12 3.61 12 2.25 C11.40832031 2.33378906 10.81664062 2.41757812 10.20703125 2.50390625 C5.90060543 3.05889424 2.24447356 3.48226652 -2 2.25 C-2.33 2.91 -2.66 3.57 -3 4.25 C-3.66 3.92 -4.32 3.59 -5 3.25 C-5.99 4.735 -5.99 4.735 -7 6.25 C-7 5.59 -7 4.93 -7 4.25 C-7.99 4.25 -8.98 4.25 -10 4.25 C-9.67 7.22 -9.34 10.19 -9 13.25 C-11.0625 11.5 -11.0625 11.5 -13 9.25 C-12.75 7 -12.75 7 -12 5.25 C-12.66 4.92 -13.32 4.59 -14 4.25 C-14 3.26 -14 2.27 -14 1.25 C-9.87226103 -0.81386948 -4.53525144 0.0206853 0 0 Z " fill="#04071D" transform="translate(186,297.75)"/>
<path d="M0 0 C-0.61875 0.185625 -1.2375 0.37125 -1.875 0.5625 C-5.05602866 2.71437233 -5.19451947 5.37533763 -6 9 C-5.37351563 8.97679687 -4.74703125 8.95359375 -4.1015625 8.9296875 C-3.28429687 8.91164063 -2.46703125 8.89359375 -1.625 8.875 C-0.81289062 8.85179687 -0.00078125 8.82859375 0.8359375 8.8046875 C3 9 3 9 5 11 C4.15695313 11.03738281 3.31390625 11.07476562 2.4453125 11.11328125 C0.80175781 11.21189453 0.80175781 11.21189453 -0.875 11.3125 C-1.96554688 11.37050781 -3.05609375 11.42851562 -4.1796875 11.48828125 C-5.57574219 11.74158203 -5.57574219 11.74158203 -7 12 C-7.99 13.485 -7.99 13.485 -9 15 C-9 14.01 -9 13.02 -9 12 C-10.32 12.33 -11.64 12.66 -13 13 C-13.29397316 8.00245633 -13.0979156 5.01581652 -10 1 C-6.1496895 -1.56687367 -4.41430237 -0.83288724 0 0 Z " fill="#1F293E" transform="translate(190,258)"/>
<path d="M0 0 C3.63 0 7.26 0 11 0 C11 0.99 11 1.98 11 3 C10.01 3.33 9.02 3.66 8 4 C7.67 13.9 7.34 23.8 7 34 C6.67 34 6.34 34 6 34 C3.35658015 24.08717557 3.80744249 14.17592366 4 4 C2.35 3.67 0.7 3.34 -1 3 C-0.67 2.01 -0.34 1.02 0 0 Z " fill="#1A2334" transform="translate(284,246)"/>
<path d="M0 0 C0.90105469 0.00902344 1.80210937 0.01804687 2.73046875 0.02734375 C3.41753906 0.03894531 4.10460937 0.05054688 4.8125 0.0625 C5.3075 1.5475 5.3075 1.5475 5.8125 3.0625 C4.8125 4.0625 4.8125 4.0625 1.75 4.125 C0.780625 4.104375 -0.18875 4.08375 -1.1875 4.0625 C-1.1875 4.7225 -1.1875 5.3825 -1.1875 6.0625 C-1.8475 6.0625 -2.5075 6.0625 -3.1875 6.0625 C-3.5175 4.7425 -3.8475 3.4225 -4.1875 2.0625 C-4.8475 3.3825 -5.5075 4.7025 -6.1875 6.0625 C-6.8475 5.7325 -7.5075 5.4025 -8.1875 5.0625 C-10.3947923 4.99157158 -12.60417452 4.97834975 -14.8125 5 C-16.59527344 5.01353516 -16.59527344 5.01353516 -18.4140625 5.02734375 C-19.78691406 5.04474609 -19.78691406 5.04474609 -21.1875 5.0625 C-21.1875 4.4025 -21.1875 3.7425 -21.1875 3.0625 C-22.1775 3.0625 -23.1675 3.0625 -24.1875 3.0625 C-24.5175 3.7225 -24.8475 4.3825 -25.1875 5.0625 C-26.5075 4.4025 -27.8275 3.7425 -29.1875 3.0625 C-27.1875 1.0625 -27.1875 1.0625 -25.26391602 0.85131836 C-24.49748779 0.86815674 -23.73105957 0.88499512 -22.94140625 0.90234375 C-21.68553711 0.9187793 -21.68553711 0.9187793 -20.40429688 0.93554688 C-19.52837891 0.95681641 -18.65246094 0.97808594 -17.75 1 C-16.02221989 1.03447898 -14.29434609 1.06460866 -12.56640625 1.08984375 C-11.7988501 1.10781006 -11.03129395 1.12577637 -10.24047852 1.14428711 C-6.70177053 1.00331111 -3.65077783 -0.0474127 0 0 Z " fill="#00014C" transform="translate(245.1875,298.9375)"/>
<path d="M0 0 C0.99 0 1.98 0 3 0 C3.33 6.27 3.66 12.54 4 19 C2.68 19 1.36 19 0 19 C-2.40755794 16.16252099 -2.97494598 14.27559421 -3.3125 10.5625 C-2.61538462 2.61538462 -2.61538462 2.61538462 0 0 Z " fill="#1B2846" transform="translate(300,261)"/>
<path d="M0 0 C-1.26497789 3.79493366 -2.74538147 4.48984824 -6 6.75 C-10.535919 9.94347622 -14.91288558 13.25854022 -19.22265625 16.75 C-21 18 -21 18 -23 18 C-23.33 18.99 -23.66 19.98 -24 21 C-24.9590625 21.2165625 -24.9590625 21.2165625 -25.9375 21.4375 C-26.618125 21.623125 -27.29875 21.80875 -28 22 C-28.309375 22.61875 -28.61875 23.2375 -28.9375 23.875 C-30.35844081 26.71688163 -32.24119033 27.54799491 -35 29 C-35 27 -35 27 -33.125 24.875 C-31 23 -31 23 -29 23 C-28.67 22.01 -28.34 21.02 -28 20 C-23.09392499 14.81845019 -17.04072635 10.7726681 -11.22265625 6.69921875 C-8.91246462 5.19072302 -8.91246462 5.19072302 -8 3 C-7.01 3 -6.02 3 -5 3 C-5 2.34 -5 1.68 -5 1 C-3 0 -3 0 0 0 Z " fill="#101A30" transform="translate(293,187)"/>
<path d="M0 0 C0.66 1.32 1.32 2.64 2 4 C1.34 4 0.68 4 0 4 C0.33 7.63 0.66 11.26 1 15 C0.01 15 -0.98 15 -2 15 C-2 14.34 -2 13.68 -2 13 C-2.99 12.67 -3.98 12.34 -5 12 C-5 12.66 -5 13.32 -5 14 C-4.34 14.66 -3.68 15.32 -3 16 C-3.8125 17.9375 -3.8125 17.9375 -5 20 C-5.99 20.33 -6.98 20.66 -8 21 C-7.67 15.39 -7.34 9.78 -7 4 C-6.01 4.33 -5.02 4.66 -4 5 C-0.75150023 3.27773504 -0.75150023 3.27773504 0 0 Z " fill="#192542" transform="translate(320,261)"/>
<path d="M0 0 C3 3.75 3 3.75 3 6 C6.04386724 6.08226668 8.07175348 5.97608217 11 5 C11 3.35 11 1.7 11 0 C12.65 0.33 14.3 0.66 16 1 C16 3.64 16 6.28 16 9 C13.20826945 9.02690104 10.41679652 9.04679053 7.625 9.0625 C6.43390625 9.07506836 6.43390625 9.07506836 5.21875 9.08789062 C-0.7734375 9.11328125 -0.7734375 9.11328125 -3 8 C-1.125 2.25 -1.125 2.25 0 0 Z " fill="#162D43" transform="translate(237,323)"/>
<path d="M0 0 C0.66 0.66 1.32 1.32 2 2 C1.625 4.125 1.625 4.125 1 6 C2.98 6 4.96 6 7 6 C7 6.66 7 7.32 7 8 C5.68 8 4.36 8 3 8 C3.226875 8.7425 3.45375 9.485 3.6875 10.25 C4 13 4 13 2.625 15.1875 C1.820625 16.0846875 1.820625 16.0846875 1 17 C0.67 17.66 0.34 18.32 0 19 C-0.99 18.34 -1.98 17.68 -3 17 C-3.3984375 14.35546875 -3.3984375 14.35546875 -3.375 11.1875 C-3.38273437 10.14980469 -3.39046875 9.11210937 -3.3984375 8.04296875 C-2.95778674 4.67760659 -1.92759539 2.75880715 0 0 Z " fill="#1C2845" transform="translate(340,261)"/>
<path d="M0 0 C0.99 0.33 1.98 0.66 3 1 C1.25 4.875 1.25 4.875 -1 6 C-1 6.66 -1 7.32 -1 8 C-1.99 8.33 -2.98 8.66 -4 9 C-4.33 10.65 -4.66 12.3 -5 14 C-5.66 14 -6.32 14 -7 14 C-7.33 15.32 -7.66 16.64 -8 18 C-8.99 17.67 -9.98 17.34 -11 17 C-11.36948915 9.48705388 -11.36948915 9.48705388 -9.625 7.1875 C-8.820625 6.5996875 -8.820625 6.5996875 -8 6 C-7.34 5.01 -6.68 4.02 -6 3 C-6 3.99 -6 4.98 -6 6 C-5.34 6 -4.68 6 -4 6 C-3.71125 5.38125 -3.4225 4.7625 -3.125 4.125 C-2 2 -2 2 0 0 Z " fill="#0F141D" transform="translate(243,235)"/>
<path d="M0 0 C0.66 0.33 1.32 0.66 2 1 C2.625 3.5625 2.625 3.5625 3 6 C4.65 5.67 6.3 5.34 8 5 C8 5.99 8 6.98 8 8 C7.01 8.33 6.02 8.66 5 9 C4.67 9.99 4.34 10.98 4 12 C1.525 11.01 1.525 11.01 -1 10 C-1.33 10.66 -1.66 11.32 -2 12 C-2.66 12 -3.32 12 -4 12 C-6.125 5.375 -6.125 5.375 -5 2 C-4.34 2 -3.68 2 -3 2 C-2.67 2.66 -2.34 3.32 -2 4 C-1.34 2.68 -0.68 1.36 0 0 Z " fill="#1B2A40" transform="translate(181,300)"/>
<path d="M0 0 C6.36559573 0.49126929 12.69264693 0.99655747 19 2 C20.0625 4.375 20.0625 4.375 21 7 C20.67 7.66 20.34 8.32 20 9 C17.4375 9.625 17.4375 9.625 15 10 C15 8.68 15 7.36 15 6 C14.34 6 13.68 6 13 6 C13 5.34 13 4.68 13 4 C11.72125 4.20625 10.4425 4.4125 9.125 4.625 C6.9453125 4.9765625 6.9453125 4.9765625 5 5 C4.34 4.34 3.68 3.68 3 3 C2.67 3.66 2.34 4.32 2 5 C2.99 5.33 3.98 5.66 5 6 C3.68 6.33 2.36 6.66 1 7 C0.67 4.69 0.34 2.38 0 0 Z " fill="#10234D" transform="translate(183,299)"/>
<path d="M0 0 C0.66 0 1.32 0 2 0 C3.88173397 3.1409932 4.15214965 4.96989233 3.5625 8.5625 C3.05958441 11.70175206 2.96270575 12.88811725 4 16 C3.83988879 18.70123106 3.39559392 21.31875231 3 24 C2.01 23.67 1.02 23.34 0 23 C-0.99306552 15.67614181 -1.37395662 8.39114253 -1 1 C-0.67 0.67 -0.34 0.34 0 0 Z " fill="#1E2945" transform="translate(146,255)"/>
<path d="M0 0 C0.91330078 0.00902344 1.82660156 0.01804688 2.76757812 0.02734375 C4.99117319 0.05062747 7.21418677 0.0833229 9.4375 0.125 C9.4375 0.455 9.4375 0.785 9.4375 1.125 C8.65503906 1.24617187 7.87257813 1.36734375 7.06640625 1.4921875 C5.54853516 1.74355469 5.54853516 1.74355469 4 2 C2.99066406 2.16242188 1.98132813 2.32484375 0.94140625 2.4921875 C0.11511719 2.70101562 -0.71117187 2.90984375 -1.5625 3.125 C-1.8925 3.785 -2.2225 4.445 -2.5625 5.125 C-5.20930904 5.01160796 -7.85427518 4.88487127 -10.5 4.75 C-11.25474609 4.7190625 -12.00949219 4.688125 -12.78710938 4.65625 C-14.71757395 4.5523685 -16.64192081 4.34604386 -18.5625 4.125 C-18.8925 3.465 -19.2225 2.805 -19.5625 2.125 C-12.88623009 0.39990076 -6.87802429 -0.13120222 0 0 Z " fill="#151C2E" transform="translate(306.5625,197.875)"/>
<path d="M0 0 C2 1.375 2 1.375 4 3 C4 3.66 4 4.32 4 5 C4.99 5 5.98 5 7 5 C7.33 4.01 7.66 3.02 8 2 C8 4.64 8 7.28 8 10 C7.443125 9.7525 6.88625 9.505 6.3125 9.25 C5.549375 9.1675 4.78625 9.085 4 9 C3.236875 9.639375 2.47375 10.27875 1.6875 10.9375 C-1.72523171 13.55657317 -3.80284514 13.32918862 -8 13 C-8 12.01 -8 11.02 -8 10 C-6.02 10.495 -6.02 10.495 -4 11 C-4.33 9.68 -4.66 8.36 -5 7 C-3.68 6.01 -2.36 5.02 -1 4 C-1 5.98 -1 7.96 -1 10 C-0.01 9.01 0.98 8.02 2 7 C1.34 6.01 0.68 5.02 0 4 C0 2.68 0 1.36 0 0 Z " fill="#121828" transform="translate(314,271)"/>
<path d="M0 0 C0.66 0 1.32 0 2 0 C0.78784328 4.7139428 -1.52376313 6.38626877 -5.44140625 8.88671875 C-7.16049794 9.93108945 -7.16049794 9.93108945 -8 12 C-8.721875 12.268125 -9.44375 12.53625 -10.1875 12.8125 C-14.54653069 14.65297963 -17.66029535 17.66029535 -21 21 C-21.66 20.34 -22.32 19.68 -23 19 C-22.34 19 -21.68 19 -21 19 C-20.938125 18.401875 -20.87625 17.80375 -20.8125 17.1875 C-19.66203803 14.09010238 -17.86066588 13.56036321 -15 12 C-12.43270753 10.01034833 -9.93758669 7.94824262 -7.4375 5.875 C-5.32590537 4.25069644 -3.36168875 3.18084438 -1 2 C-0.67 1.34 -0.34 0.68 0 0 Z " fill="#171D2A" transform="translate(275,176)"/>
<path d="M0 0 C-3.46444197 1.85595105 -6.2873953 3.33300647 -10.25 2.5625 C-10.8275 2.376875 -11.405 2.19125 -12 2 C-12.061875 2.61875 -12.12375 3.2375 -12.1875 3.875 C-13 6 -13 6 -15.375 7.25 C-18 8 -18 8 -21 8 C-21.93423645 4.98968256 -22.04449911 4.13349732 -21 1 C-18.06328811 0.6377756 -15.12596806 0.28491613 -12.1875 -0.0625 C-10.93743164 -0.2181543 -10.93743164 -0.2181543 -9.66210938 -0.37695312 C-8.45844727 -0.51713867 -8.45844727 -0.51713867 -7.23046875 -0.66015625 C-6.49207764 -0.74918213 -5.75368652 -0.83820801 -4.99291992 -0.92993164 C-3 -1 -3 -1 0 0 Z M-15 1 C-14 3 -14 3 -14 3 Z " fill="#122045" transform="translate(261,322)"/>
<path d="M0 0 C0.33 0 0.66 0 1 0 C1 1.98 1 3.96 1 6 C-0.32 6.33 -1.64 6.66 -3 7 C-3 7.66 -3 8.32 -3 9 C-0.03 9.33 2.94 9.66 6 10 C6 10.33 6 10.66 6 11 C2.89614789 11.11613204 -0.20714662 11.18722029 -3.3125 11.25 C-4.19357422 11.28351563 -5.07464844 11.31703125 -5.98242188 11.3515625 C-12.52876499 11.45112665 -12.52876499 11.45112665 -15.10546875 8.984375 C-15.40066406 8.32953125 -15.69585937 7.6746875 -16 7 C-13.69 7.66 -11.38 8.32 -9 9 C-8.67 7.02 -8.34 5.04 -8 3 C-7.34 3 -6.68 3 -6 3 C-5.67 3.66 -5.34 4.32 -5 5 C-3.35 4.67 -1.7 4.34 0 4 C0 2.68 0 1.36 0 0 Z " fill="#0E172A" transform="translate(264,273)"/>
<path d="M0 0 C1.9375 0.375 1.9375 0.375 4 1 C4.33 1.66 4.66 2.32 5 3 C3.68 3 2.36 3 1 3 C1 4.65 1 6.3 1 8 C1.66 8.33 2.32 8.66 3 9 C2.21625 8.835 1.4325 8.67 0.625 8.5 C-2.6518327 7.87584139 -3.77779 7.92593 -7 9 C-9.04296875 8.87890625 -9.04296875 8.87890625 -11.1875 8.5625 C-12.445625 8.376875 -13.70375 8.19125 -15 8 C-14.67 7.34 -14.34 6.68 -14 6 C-12.35 6.33 -10.7 6.66 -9 7 C-9 5.68 -9 4.36 -9 3 C-7.88625 3.061875 -6.7725 3.12375 -5.625 3.1875 C-4.42875 3.125625 -3.2325 3.06375 -2 3 C-1.34 2.01 -0.68 1.02 0 0 Z " fill="#103147" transform="translate(281,303)"/>
<path d="M0 0 C4.29 0 8.58 0 13 0 C13.33 0.66 13.66 1.32 14 2 C13.360625 2.28875 12.72125 2.5775 12.0625 2.875 C9.84793921 3.82823451 9.84793921 3.82823451 9 6 C2.32717912 7.07626143 -4.2537087 7.11348901 -11 7 C-11 6.67 -11 6.34 -11 6 C-10.32453125 5.97421875 -9.6490625 5.9484375 -8.953125 5.921875 C-3.24236068 5.65678272 -3.24236068 5.65678272 1.625 2.9375 C2.07875 2.298125 2.5325 1.65875 3 1 C2.01 0.67 1.02 0.34 0 0 Z " fill="#111A29" transform="translate(280,220)"/>
<path d="M0 0 C0.33 0.66 0.66 1.32 1 2 C1.66 2.33 2.32 2.66 3 3 C3.33 3.66 3.66 4.32 4 5 C6.12576782 5.46651207 6.12576782 5.46651207 8.5625 5.625 C9.38878906 5.69976562 10.21507812 5.77453125 11.06640625 5.8515625 C11.70449219 5.90054687 12.34257812 5.94953125 13 6 C13 6.99 13 7.98 13 9 C9.41604315 8.88995839 5.83312083 8.75936703 2.25 8.625 C1.23421875 8.5940625 0.2184375 8.563125 -0.828125 8.53125 C-1.8078125 8.49257813 -2.7875 8.45390625 -3.796875 8.4140625 C-4.69760742 8.3826416 -5.59833984 8.3512207 -6.52636719 8.31884766 C-9.08822875 7.98862744 -10.78127437 7.29048327 -13 6 C-12.39671875 5.93941406 -11.7934375 5.87882812 -11.171875 5.81640625 C-9.97304687 5.69072266 -9.97304687 5.69072266 -8.75 5.5625 C-7.96109375 5.48128906 -7.1721875 5.40007812 -6.359375 5.31640625 C-4.17635361 5.02365007 -2.1226818 4.57935581 0 4 C0 2.68 0 1.36 0 0 Z " fill="#000050" transform="translate(229,306)"/>
<path d="M0 0 C0.99 0.33 1.98 0.66 3 1 C3.33 2.65 3.66 4.3 4 6 C4.66 6 5.32 6 6 6 C6 10.95 6 15.9 6 21 C4.68 21 3.36 21 2 21 C1.75 14.375 1.75 14.375 4 11 C3.525625 10.29875 3.05125 9.5975 2.5625 8.875 C0.91260143 5.83918663 0.39631536 3.40831214 0 0 Z " fill="#00000A" transform="translate(221,259)"/>
<path d="M0 0 C-1.02196814 2.7483437 -1.67300427 3.81827338 -4.27734375 5.265625 C-5.15519531 5.59046875 -6.03304688 5.9153125 -6.9375 6.25 C-8.25041016 6.75273437 -8.25041016 6.75273437 -9.58984375 7.265625 C-12 8 -12 8 -15 8 C-14.67 7.01 -14.34 6.02 -14 5 C-14.33 4.01 -14.66 3.02 -15 2 C-14.67 1.67 -14.34 1.34 -14 1 C-11.66666667 1 -9.33333333 1 -7 1 C-2.5 0 -2.5 0 0 0 Z " fill="#191D28" transform="translate(286,207)"/>
<path d="M0 0 C0.33 3.3 0.66 6.6 1 10 C1.66 10 2.32 10 3 10 C3.33 10.99 3.66 11.98 4 13 C5 15.5 5 15.5 9 17 C5.04 17 1.08 17 -3 17 C-3 16.01 -3 15.02 -3 14 C-2.34 14 -1.68 14 -1 14 C-1 10.37 -1 6.74 -1 3 C-2.32 2.34 -3.64 1.68 -5 1 C-3 0 -3 0 0 0 Z " fill="#10192F" transform="translate(166,267)"/>
<path d="M0 0 C0.99 0 1.98 0 3 0 C3 0.66 3 1.32 3 2 C3.66 2.33 4.32 2.66 5 3 C4.67 3.33 4.34 3.66 4 4 C3.95936168 5.66617115 3.957279 7.33388095 4 9 C3.01 9.495 3.01 9.495 2 10 C2 11.32 2 12.64 2 14 C0 14 0 14 -1.63671875 12.78515625 C-3 11 -3 11 -3.14453125 8.80859375 C-3.03496094 8.02613281 -2.92539063 7.24367187 -2.8125 6.4375 C-2.71582031 5.65246094 -2.61914062 4.86742187 -2.51953125 4.05859375 C-2 2 -2 2 0 0 Z M0 1 C1 3 1 3 1 3 Z " fill="#161B2B" transform="translate(249,196)"/>
<path d="M0 0 C0.99 0.66 1.98 1.32 3 2 C7.2209225 2.36703674 10.17742309 1.79885972 14 0 C13.09126425 3.05665662 12.32469175 4.72305703 9.875 6.8125 C5.85224003 8.47407477 3.35447312 8.48383035 -1 8 C-3.5 6 -3.5 6 -5 4 C-3.741875 4.33 -2.48375 4.66 -1.1875 5 C1.38987302 5.67603227 3.30212925 6 6 6 C6.33 5.34 6.66 4.68 7 4 C5.02 4 3.04 4 1 4 C0.67 2.68 0.34 1.36 0 0 Z " fill="#172030" transform="translate(185,276)"/>
<path d="M0 0 C5.75 -0.125 5.75 -0.125 8 1 C8 2.32 8 3.64 8 5 C8.66 5.33 9.32 5.66 10 6 C9 7 9 7 6.71484375 7.09765625 C5.34005859 7.08025391 5.34005859 7.08025391 3.9375 7.0625 C3.01839844 7.05347656 2.09929687 7.04445313 1.15234375 7.03515625 C0.44207031 7.02355469 -0.26820313 7.01195312 -1 7 C-0.67 4.69 -0.34 2.38 0 0 Z " fill="#101745" transform="translate(186,260)"/>
<path d="M0 0 C0.625 2.3125 0.625 2.3125 1 5 C0.01 6.485 0.01 6.485 -1 8 C-3.31 7.67 -5.62 7.34 -8 7 C-9 4 -9 4 -8 1 C-5.07175348 0.02391783 -3.04386724 -0.08226668 0 0 Z " fill="#192941" transform="translate(208,258)"/>
<path d="M0 0 C0.7425 0.185625 1.485 0.37125 2.25 0.5625 C4.94990963 0.99203108 6.44631077 0.85122974 9 0 C8.34 2.31 7.68 4.62 7 7 C5.35 7 3.7 7 2 7 C2 5.35 2 3.7 2 2 C-1.41610285 5.55844047 -1.08674417 8.22907071 -1 13 C-1.66 13.99 -2.32 14.98 -3 16 C-3.55353075 4.29384966 -3.55353075 4.29384966 0 0 Z " fill="#111732" transform="translate(339,260)"/>
<path d="M0 0 C1.98 0.66 3.96 1.32 6 2 C6 2.99 6 3.98 6 5 C6.66 5.33 7.32 5.66 8 6 C3.71702469 7.05619003 -0.42985646 7.11702092 -4.8125 7.0625 C-5.50537109 7.05798828 -6.19824219 7.05347656 -6.91210938 7.04882812 C-8.60811068 7.03713156 -10.30406703 7.01919924 -12 7 C-8.54337669 4.69558446 -7.05142119 4.74139865 -3 5 C-2.34 5.33 -1.68 5.66 -1 6 C-0.67 4.02 -0.34 2.04 0 0 Z " fill="#060F47" transform="translate(254,326)"/>
<path d="M0 0 C1.32 0.33 2.64 0.66 4 1 C4.0270043 2.45823212 4.04639787 3.91660675 4.0625 5.375 C4.07410156 6.18710937 4.08570313 6.99921875 4.09765625 7.8359375 C4 10 4 10 3 12 C2.34 12 1.68 12 1 12 C1 12.66 1 13.32 1 14 C1.66 14 2.32 14 3 14 C2.67 14.66 2.34 15.32 2 16 C1.01 16 0.02 16 -1 16 C-1 14.35 -1 12.7 -1 11 C-1.66 10.67 -2.32 10.34 -3 10 C-2.67 8.35 -2.34 6.7 -2 5 C-1.67 6.32 -1.34 7.64 -1 9 C-0.34 9 0.32 9 1 9 C1 7.35 1 5.7 1 4 C0.34 3.67 -0.32 3.34 -1 3 C-0.01 3 0.98 3 2 3 C2 2.34 2 1.68 2 1 C1.34 0.67 0.68 0.34 0 0 Z " fill="#020218" transform="translate(211,269)"/>
<path d="M0 0 C0.33 0 0.66 0 1 0 C2.72509924 6.67626991 3.25620222 12.68447571 3.125 19.5625 C3.11597656 20.47580078 3.10695313 21.38910156 3.09765625 22.33007812 C3.07437253 24.55367319 3.0416771 26.77668677 3 29 C2.67 29 2.34 29 2 29 C-0.52816306 19.36137832 -0.18269137 9.88563297 0 0 Z " fill="#0F1B30" transform="translate(288,251)"/>
<path d="M0 0 C0.99 0.99 1.98 1.98 3 3 C5.65466049 2.76956136 5.65466049 2.76956136 8 2 C8.36253776 7.43806647 8.36253776 7.43806647 6.75 9.9375 C6.1725 10.288125 5.595 10.63875 5 11 C3.68 10.67 2.36 10.34 1 10 C0.67 6.7 0.34 3.4 0 0 Z " fill="#172039" transform="translate(176,267)"/>
<path d="M0 0 C0.78552246 0.05236816 1.57104492 0.10473633 2.38037109 0.15869141 C3.65654297 0.23603516 3.65654297 0.23603516 4.95849609 0.31494141 C5.84794922 0.37939453 6.73740234 0.44384766 7.65380859 0.51025391 C8.99958984 0.59533203 8.99958984 0.59533203 10.37255859 0.68212891 C12.59209484 0.82380143 14.81053262 0.9752243 17.02880859 1.13525391 C14.43954528 3.72451722 13.0017558 3.50923433 9.40380859 3.76025391 C8.40091797 3.83501953 7.39802734 3.90978516 6.36474609 3.98681641 C5.59388672 4.03580078 4.82302734 4.08478516 4.02880859 4.13525391 C4.02880859 3.47525391 4.02880859 2.81525391 4.02880859 2.13525391 C3.03880859 2.13525391 2.04880859 2.13525391 1.02880859 2.13525391 C0.69880859 2.79525391 0.36880859 3.45525391 0.02880859 4.13525391 C-1.29119141 3.47525391 -2.61119141 2.81525391 -3.97119141 2.13525391 C-1.97119141 0.13525391 -1.97119141 0.13525391 0 0 Z " fill="#010123" transform="translate(219.97119140625,299.86474609375)"/>
<path d="M0 0 C0.33 0 0.66 0 1 0 C1 1.65 1 3.3 1 5 C1.66 5.33 2.32 5.66 3 6 C-0.81756824 7.37432457 -4.07255329 6.67975039 -8 6 C-8.33 5.01 -8.66 4.02 -9 3 C-8.34 3 -7.68 3 -7 3 C-6.67 2.34 -6.34 1.68 -6 1 C-4.35 1.33 -2.7 1.66 -1 2 C-0.67 1.34 -0.34 0.68 0 0 Z " fill="#0F1D34" transform="translate(203,306)"/>
<path d="M0 0 C0.33 0.66 0.66 1.32 1 2 C4.3 2 7.6 2 11 2 C11 1.34 11 0.68 11 0 C12.32 0.66 13.64 1.32 15 2 C13.98046875 3.51953125 13.98046875 3.51953125 12 5 C9.32891426 5.05546517 6.94707177 4.96547069 4.3125 4.6875 C3.61060547 4.62626953 2.90871094 4.56503906 2.18554688 4.50195312 C0.4557033 4.34897376 -1.27238497 4.17637398 -3 4 C-2.01 2.68 -1.02 1.36 0 0 Z " fill="#00003C" transform="translate(265,309)"/>
<path d="M0 0 C0.66 0.66 1.32 1.32 2 2 C1.67 2.33 1.34 2.66 1 3 C1.99 3.99 2.98 4.98 4 6 C3.401875 6.144375 2.80375 6.28875 2.1875 6.4375 C0.43849596 6.8872439 -1.28677023 7.42892341 -3 8 C-3.73323796 10.01508358 -3.73323796 10.01508358 -4 12 C-4.99 12 -5.98 12 -7 12 C-7 7.65618436 -6.80997583 7.2927032 -4.0625 4.3125 C-3.51722656 3.71050781 -2.97195313 3.10851562 -2.41015625 2.48828125 C-1.61594299 1.65006725 -0.81651008 0.81651008 0 0 Z " fill="#1F2B40" transform="translate(328,187)"/>
<path d="M0 0 C1.32 0.33 2.64 0.66 4 1 C4.5534764 3.07553648 5 4.84365964 5 7 C2.03 7 -0.94 7 -4 7 C-2.68 4.69 -1.36 2.38 0 0 Z " fill="#00024A" transform="translate(210,260)"/>
<path d="M0 0 C6.93 0 13.86 0 21 0 C21.33 0.66 21.66 1.32 22 2 C21.34 2 20.68 2 20 2 C20 2.66 20 3.32 20 4 C19.15050781 3.84402344 18.30101562 3.68804687 17.42578125 3.52734375 C12.87237414 2.82642019 8.32774445 2.62305536 3.73046875 2.37890625 C2.82941406 2.25386719 1.92835938 2.12882812 1 2 C0.67 1.34 0.34 0.68 0 0 Z " fill="#000004" transform="translate(303,301)"/>
<path d="M0 0 C0 0.66 0 1.32 0 2 C-1.98 2.33 -3.96 2.66 -6 3 C-6.33 2.01 -6.66 1.02 -7 0 C-7.99 0 -8.98 0 -10 0 C-10.33 0.99 -10.66 1.98 -11 3 C-11 1.68 -11 0.36 -11 -1 C-12.98 -0.67 -14.96 -0.34 -17 0 C-17 -0.66 -17 -1.32 -17 -2 C-12.15244108 -4.42377946 -4.94184368 -1.54432615 0 0 Z " fill="#000049" transform="translate(209,301)"/>
<path d="M0 0 C1.65 0 3.3 0 5 0 C5.33 1.32 5.66 2.64 6 4 C3.6875 6.0625 3.6875 6.0625 1 8 C0.01 7.67 -0.98 7.34 -2 7 C-1.34 4.69 -0.68 2.38 0 0 Z " fill="#212B3D" transform="translate(328,153)"/>
<path d="M0 0 C0.33 0 0.66 0 1 0 C1 1.65 1 3.3 1 5 C1.66 5.33 2.32 5.66 3 6 C0.63699651 8.36300349 -0.5798498 8.51433444 -3.8125 9.125 C-5.09060547 9.37636719 -5.09060547 9.37636719 -6.39453125 9.6328125 C-8.96843811 9.995552 -11.40461588 10.06523407 -14 10 C-11.49751135 8.33167423 -9.58850813 7.37618326 -6.8125 6.375 C-6.09707031 6.11460937 -5.38164062 5.85421875 -4.64453125 5.5859375 C-4.10183594 5.39257812 -3.55914062 5.19921875 -3 5 C-3 5.66 -3 6.32 -3 7 C-2.34 7 -1.68 7 -1 7 C-1.020625 6.030625 -1.04125 5.06125 -1.0625 4.0625 C-1 1 -1 1 0 0 Z " fill="#000033" transform="translate(259,306)"/>
<path d="M0 0 C0.99 0.33 1.98 0.66 3 1 C1.25 4.875 1.25 4.875 -1 6 C-1 6.66 -1 7.32 -1 8 C-4.01031744 8.93423645 -4.86650268 9.04449911 -8 8 C-7.67 6.35 -7.34 4.7 -7 3 C-6.67 3.99 -6.34 4.98 -6 6 C-5.34 6 -4.68 6 -4 6 C-3.71125 5.38125 -3.4225 4.7625 -3.125 4.125 C-2 2 -2 2 0 0 Z " fill="#131D2A" transform="translate(243,235)"/>
<path d="M0 0 C0 3 0 3 -2 6 C-2.66 6 -3.32 6 -4 6 C-4.66 7.32 -5.32 8.64 -6 10 C-6.99 10 -7.98 10 -9 10 C-6.83116883 3.49350649 -6.83116883 3.49350649 -4 1.8125 C-3.34 1.544375 -2.68 1.27625 -2 1 C-1.34 0.67 -0.68 0.34 0 0 Z " fill="#101C2F" transform="translate(341,174)"/>
<path d="M0 0 C0 1.98 0 3.96 0 6 C-1.32 5.34 -2.64 4.68 -4 4 C-5.32 5.65 -6.64 7.3 -8 9 C-9.32 8.67 -10.64 8.34 -12 8 C-11.21625 7.401875 -10.4325 6.80375 -9.625 6.1875 C-6.85425677 4.08914751 -6.85425677 4.08914751 -5 1 C-2 0 -2 0 0 0 Z " fill="#151D24" transform="translate(357,134)"/>
<path d="M0 0 C1.5 1.25 1.5 1.25 3 3 C3 4.32 3 5.64 3 7 C3.66 7.33 4.32 7.66 5 8 C3.68 8.33 2.36 8.66 1 9 C1 9.66 1 10.32 1 11 C0.01 10.67 -0.98 10.34 -2 10 C-1.34 8.35 -0.68 6.7 0 5 C-0.66 4.67 -1.32 4.34 -2 4 C-1.34 2.68 -0.68 1.36 0 0 Z " fill="#02072F" transform="translate(265,323)"/>
<path d="M0 0 C4.48525648 0.656379 8.66914029 1.70074209 13 3 C13 3.33 13 3.66 13 4 C6.9453125 4.9765625 6.9453125 4.9765625 5 5 C4.34 4.34 3.68 3.68 3 3 C2.67 3.66 2.34 4.32 2 5 C2.99 5.33 3.98 5.66 5 6 C3.68 6.33 2.36 6.66 1 7 C0.67 4.69 0.34 2.38 0 0 Z " fill="#080D48" transform="translate(183,299)"/>
<path d="M0 0 C0.33 0 0.66 0 1 0 C1.07347656 0.95712891 1.07347656 0.95712891 1.1484375 1.93359375 C1.22320312 2.75988281 1.29796875 3.58617187 1.375 4.4375 C1.44460937 5.26121094 1.51421875 6.08492188 1.5859375 6.93359375 C1.72257813 7.61550781 1.85921875 8.29742187 2 9 C2.66 9.33 3.32 9.66 4 10 C4 10.66 4 11.32 4 12 C-0.75 11.125 -0.75 11.125 -3 10 C-2.67 7.69 -2.34 5.38 -2 3 C-1.34 3 -0.68 3 0 3 C0 2.01 0 1.02 0 0 Z " fill="#182239" transform="translate(171,271)"/>
<path d="M0 0 C0.33 0 0.66 0 1 0 C1.91657981 5.38490641 2.11138159 10.54230189 2 16 C0.515625 14.8828125 0.515625 14.8828125 -1 13 C-1.328125 10.1171875 -1.328125 10.1171875 -1.25 6.875 C-1.23453125 5.79992187 -1.2190625 4.72484375 -1.203125 3.6171875 C-1 1 -1 1 0 0 Z " fill="#00001F" transform="translate(304,263)"/>
<path d="M0 0 C2 1 2 1 2.75 2.8125 C3 5 3 5 2.5 7.1875 C1 9 1 9 -2.625 9.75 C-3.73875 9.8325 -4.8525 9.915 -6 10 C-4.68 9.67 -3.36 9.34 -2 9 C-2 8.34 -2 7.68 -2 7 C-2.66 6.34 -3.32 5.68 -4 5 C-3.01 5 -2.02 5 -1 5 C-0.67 3.35 -0.34 1.7 0 0 Z " fill="#00002E" transform="translate(212,303)"/>
<path d="M0 0 C0.99 0.33 1.98 0.66 3 1 C3 2.32 3 3.64 3 5 C3.99 4.67 4.98 4.34 6 4 C6 4.66 6 5.32 6 6 C6.66 6.33 7.32 6.66 8 7 C6.72125 7.061875 5.4425 7.12375 4.125 7.1875 C3.40570313 7.22230469 2.68640625 7.25710938 1.9453125 7.29296875 C1.30335938 7.19628906 0.66140625 7.09960938 0 7 C-0.66 6.01 -1.32 5.02 -2 4 C-1.34 2.68 -0.68 1.36 0 0 Z " fill="#0E223E" transform="translate(233,305)"/>
<path d="M0 0 C1.09570312 0.00902344 2.19140625 0.01804688 3.3203125 0.02734375 C4.16335938 0.03894531 5.00640625 0.05054688 5.875 0.0625 C3.60937327 2.32812673 2.03339295 3.00712749 -1.16796875 3.16015625 C-1.87566406 3.14855469 -2.58335937 3.13695312 -3.3125 3.125 C-5.1996875 3.0940625 -5.1996875 3.0940625 -7.125 3.0625 C-7.455 2.4025 -7.785 1.7425 -8.125 1.0625 C-5.36047967 -0.31976016 -3.0788637 -0.03275387 0 0 Z " fill="#0D1723" transform="translate(295.125,198.9375)"/>
<path d="M0 0 C1.9375 0.375 1.9375 0.375 4 1 C4.33 1.66 4.66 2.32 5 3 C3.68 3 2.36 3 1 3 C1 4.65 1 6.3 1 8 C1.66 8.33 2.32 8.66 3 9 C1.35 8.67 -0.3 8.34 -2 8 C-2.6875 6.25 -2.6875 6.25 -3 4 C-1.5625 1.75 -1.5625 1.75 0 0 Z " fill="#1A2C45" transform="translate(281,303)"/>
<path d="M0 0 C2.475 0.495 2.475 0.495 5 1 C4.01 1.495 4.01 1.495 3 2 C3 2.66 3 3.32 3 4 C4.32 4 5.64 4 7 4 C7.33 2.68 7.66 1.36 8 0 C8.99 1.98 9.98 3.96 11 6 C8.30798849 6.74778098 6.5280149 7.1508614 3.8125 6.375 C1.44224093 4.57687243 0.88234059 2.79407853 0 0 Z " fill="#141F36" transform="translate(200,277)"/>
<path d="M0 0 C0.33 0 0.66 0 1 0 C1.33 3.3 1.66 6.6 2 10 C2.99 10.33 3.98 10.66 5 11 C5 11.66 5 12.32 5 13 C2.69 12.67 0.38 12.34 -2 12 C-1.34 8.04 -0.68 4.08 0 0 Z " fill="#151F32" transform="translate(149,271)"/>
<path d="M0 0 C0.33 0 0.66 0 1 0 C1 1.98 1 3.96 1 6 C-0.32 6.33 -1.64 6.66 -3 7 C-3 7.66 -3 8.32 -3 9 C-0.03 9.33 2.94 9.66 6 10 C6 10.33 6 10.66 6 11 C2.37 11 -1.26 11 -5 11 C-4.1875 8.0625 -4.1875 8.0625 -3 5 C-2.01 4.67 -1.02 4.34 0 4 C0 2.68 0 1.36 0 0 Z " fill="#010318" transform="translate(264,273)"/>
<path d="M0 0 C0.99 0 1.98 0 3 0 C3.33 1.65 3.66 3.3 4 5 C3.01 5.33 2.02 5.66 1 6 C-0.21869929 8.50447516 -0.21869929 8.50447516 -1 11 C-1.66 11 -2.32 11 -3 11 C-2.690625 10.29875 -2.38125 9.5975 -2.0625 8.875 C-0.96697322 5.91063343 -0.43577008 3.12301892 0 0 Z " fill="#1F2933" transform="translate(240,227)"/>
<path d="M0 0 C0.66 0 1.32 0 2 0 C3.50934217 3.01868434 3.17510672 5.67297229 3 9 C2.34 9.99 1.68 10.98 1 12 C0 11 0 11 -0.09765625 8.49609375 C-0.08605469 7.48675781 -0.07445312 6.47742188 -0.0625 5.4375 C-0.05347656 4.42558594 -0.04445312 3.41367187 -0.03515625 2.37109375 C-0.02355469 1.58863281 -0.01195312 0.80617188 0 0 Z " fill="#000037" transform="translate(229,321)"/>
<path d="M0 0 C1.5159375 0.309375 1.5159375 0.309375 3.0625 0.625 C5.83114953 0.25641012 5.83114953 0.25641012 8.0625 -0.375 C8.0625 0.615 8.0625 1.605 8.0625 2.625 C3.1125 2.625 -1.8375 2.625 -6.9375 2.625 C-2.9375 -0.375 -2.9375 -0.375 0 0 Z " fill="#050F25" transform="translate(287.9375,310.375)"/>
<path d="M0 0 C0.79921875 0.00902344 1.5984375 0.01804688 2.421875 0.02734375 C3.02515625 0.03894531 3.6284375 0.05054688 4.25 0.0625 C4.25 0.7225 4.25 1.3825 4.25 2.0625 C-2.185 2.5575 -2.185 2.5575 -8.75 3.0625 C-8.75 2.4025 -8.75 1.7425 -8.75 1.0625 C-5.75519083 0.1901588 -3.11424089 -0.04579766 0 0 Z " fill="#111C30" transform="translate(315.75,188.9375)"/>
<path d="M0 0 C0.66 0 1.32 0 2 0 C3 7.625 3 7.625 3 11 C2.01 10.67 1.02 10.34 0 10 C-1.125 2.25 -1.125 2.25 0 0 Z " fill="#1C2B49" transform="translate(260,301)"/>
<path d="M0 0 C6.625 0.75 6.625 0.75 10 3 C9.34 4.32 8.68 5.64 8 7 C7.236875 6.21625 6.47375 5.4325 5.6875 4.625 C3.09108195 1.92742283 3.09108195 1.92742283 0 0 Z " fill="#000041" transform="translate(250,298)"/>
<path d="M0 0 C0.0825 0.61875 0.165 1.2375 0.25 1.875 C0.81258459 4.18437567 0.81258459 4.18437567 3.0625 5.25 C3.701875 5.4975 4.34125 5.745 5 6 C5 7.32 5 8.64 5 10 C3.68 10.33 2.36 10.66 1 11 C1 10.34 1 9.68 1 9 C0.649375 8.401875 0.29875 7.80375 -0.0625 7.1875 C-1.25178423 4.41250346 -0.79330593 2.85590136 0 0 Z M1 5 C1 5.66 1 6.32 1 7 C1.99 6.67 2.98 6.34 4 6 C3.01 5.67 2.02 5.34 1 5 Z " fill="#111826" transform="translate(329,273)"/>
<path d="M0 0 C0.66 0.33 1.32 0.66 2 1 C2 1.33 2 1.66 2 2 C0.08364783 2.05423638 -1.83314925 2.09289963 -3.75 2.125 C-5.35101563 2.15980469 -5.35101563 2.15980469 -6.984375 2.1953125 C-9.92470106 2.00487687 -11.52361878 1.52670104 -14 0 C-9.20863728 -1.59712091 -4.74150731 -1.58050244 0 0 Z " fill="#000029" transform="translate(230,312)"/>
<path d="M0 0 C0.66 0.33 1.32 0.66 2 1 C1.67 1.99 1.34 2.98 1 4 C1.87483915 6.16715557 1.87483915 6.16715557 3 8 C0.03 7.505 0.03 7.505 -3 7 C-4 4 -4 4 -3 1 C-2.01 0.67 -1.02 0.34 0 0 Z " fill="#101523" transform="translate(203,258)"/>
<path d="M0 0 C0.8971875 0.5259375 0.8971875 0.5259375 1.8125 1.0625 C-6.449459 4.69120159 -6.449459 4.69120159 -11.1875 3.0625 C-10.8575 2.4025 -10.5275 1.7425 -10.1875 1.0625 C-8.53358154 0.67078247 -6.86404729 0.34192455 -5.1875 0.0625 C-2.1875 -0.9375 -2.1875 -0.9375 0 0 Z " fill="#0F182E" transform="translate(321.1875,202.9375)"/>
<path d="M0 0 C0.66 0 1.32 0 2 0 C2 0.66 2 1.32 2 2 C3.65 2.33 5.3 2.66 7 3 C7 3.66 7 4.32 7 5 C5.35 5.66 3.7 6.32 2 7 C0.4375 5.1875 0.4375 5.1875 -1 3 C-0.67 2.01 -0.34 1.02 0 0 Z " fill="#0A1A50" transform="translate(249,305)"/>
<path d="M0 0 C1.65 0.33 3.3 0.66 5 1 C4.25 3.4375 4.25 3.4375 3 6 C0.875 6.8125 0.875 6.8125 -1 7 C-0.67 4.69 -0.34 2.38 0 0 Z " fill="#000306" transform="translate(186,260)"/>
<path d="M0 0 C-4.79535624 2.56894084 -7.66056856 3.23217649 -13 2 C-13.99 2 -14.98 2 -16 2 C-16 1.34 -16 0.68 -16 0 C-13.89651926 -0.19504458 -11.79217415 -0.38078496 -9.6875 -0.5625 C-8.51574219 -0.66691406 -7.34398437 -0.77132813 -6.13671875 -0.87890625 C-3 -1 -3 -1 0 0 Z " fill="#000027" transform="translate(261,322)"/>
<path d="M0 0 C5.875 3.75 5.875 3.75 7 6 C4.625 6.625 4.625 6.625 2 7 C0 5 0 5 -0.125 2.375 C-0.08375 1.59125 -0.0425 0.8075 0 0 Z " fill="#121D56" transform="translate(220,305)"/>
<path d="M0 0 C-0.33 1.32 -0.66 2.64 -1 4 C-2.1446875 4.2165625 -2.1446875 4.2165625 -3.3125 4.4375 C-6.08172908 4.9632594 -6.08172908 4.9632594 -9 6 C-9.66 5.34 -10.32 4.68 -11 4 C-9.73308493 3.32591692 -8.46129251 2.66099503 -7.1875 2 C-6.47980469 1.62875 -5.77210938 1.2575 -5.04296875 0.875 C-3 0 -3 0 0 0 Z " fill="#181B25" transform="translate(291,170)"/>
<path d="M0 0 C2.76223278 2.76223278 2.57856291 5.20706617 3 9 C2.01 9.33 1.02 9.66 0 10 C0 8.02 0 6.04 0 4 C-0.66 3.67 -1.32 3.34 -2 3 C-1.34 2.01 -0.68 1.02 0 0 Z " fill="#1A3146" transform="translate(296,302)"/>
<path d="M0 0 C0 0.99 0 1.98 0 3 C-3.63 3 -7.26 3 -11 3 C-9.68 2.34 -8.36 1.68 -7 1 C-6.319375 0.608125 -5.63875 0.21625 -4.9375 -0.1875 C-3 -1 -3 -1 0 0 Z " fill="#080E20" transform="translate(236,281)"/>
<path d="M0 0 C1.98 0.66 3.96 1.32 6 2 C6 3.98 6 5.96 6 8 C5.01 7.67 4.02 7.34 3 7 C2.67 6.01 2.34 5.02 2 4 C1.34 3.67 0.68 3.34 0 3 C0 2.01 0 1.02 0 0 Z " fill="#1A2440" transform="translate(238,257)"/>
<path d="M0 0 C-0.33 0.99 -0.66 1.98 -1 3 C-3.64 3 -6.28 3 -9 3 C-6.07868595 -0.19953443 -4.37453972 -1.45817991 0 0 Z " fill="#141B2B" transform="translate(303,191)"/>
<path d="M0 0 C1.98 0.66 3.96 1.32 6 2 C5.01 2.495 5.01 2.495 4 3 C4 3.99 4 4.98 4 6 C2.0625 5.1875 2.0625 5.1875 0 4 C-0.33 3.01 -0.66 2.02 -1 1 C-0.67 0.67 -0.34 0.34 0 0 Z " fill="#14204A" transform="translate(287,303)"/>
<path d="M0 0 C2.31 0.66 4.62 1.32 7 2 C7.33 3.65 7.66 5.3 8 7 C6.35 6.67 4.7 6.34 3 6 C2.67 5.01 2.34 4.02 2 3 C1.34 2.67 0.68 2.34 0 2 C0 1.34 0 0.68 0 0 Z " fill="#1F2A46" transform="translate(200,275)"/>
<path d="M0 0 C0.66 0.33 1.32 0.66 2 1 C1.67 2.65 1.34 4.3 1 6 C-0.32 5.67 -1.64 5.34 -3 5 C-3 4.34 -3 3.68 -3 3 C-3.66 3 -4.32 3 -5 3 C-4.67 2.34 -4.34 1.68 -4 1 C-2.02 1.495 -2.02 1.495 0 2 C0 1.34 0 0.68 0 0 Z " fill="#111B30" transform="translate(191,306)"/>
<path d="M0 0 C4.95 0 9.9 0 15 0 C15 0.33 15 0.66 15 1 C13.56274129 1.16873478 12.12518162 1.33490737 10.6875 1.5 C9.88699219 1.5928125 9.08648437 1.685625 8.26171875 1.78125 C4.45739591 2.14919832 3.30422683 2.20281788 0 0 Z " fill="#000077" transform="translate(281,302)"/>
<path d="M0 0 C2 3 2 3 3 5 C2.01 6.485 2.01 6.485 1 8 C0.34 7.67 -0.32 7.34 -1 7 C-1.5625 5.0625 -1.5625 5.0625 -2 3 C-2.33 2.34 -2.66 1.68 -3 1 C-2.01 0.67 -1.02 0.34 0 0 Z " fill="#111B2C" transform="translate(334,150)"/>
<path d="M0 0 C2.475 0.99 2.475 0.99 5 2 C4.34 3.32 3.68 4.64 3 6 C2.01 6 1.02 6 0 6 C-1.125 2.25 -1.125 2.25 0 0 Z " fill="#050C25" transform="translate(236,320)"/>
<path d="M0 0 C2.9375 0.8125 2.9375 0.8125 6 2 C6.33 2.99 6.66 3.98 7 5 C4.03 4.505 4.03 4.505 1 4 C0.67 2.68 0.34 1.36 0 0 Z " fill="#0F1930" transform="translate(266,279)"/>
<path d="M0 0 C0 3.96 0 7.92 0 12 C-0.33 12 -0.66 12 -1 12 C-1 9.03 -1 6.06 -1 3 C-2.32 2.34 -3.64 1.68 -5 1 C-3 0 -3 0 0 0 Z " fill="#000004" transform="translate(166,267)"/>
<path d="M0 0 C1.98 0.66 3.96 1.32 6 2 C4.68 2.99 3.36 3.98 2 5 C1.01 4.34 0.02 3.68 -1 3 C-0.67 2.01 -0.34 1.02 0 0 Z " fill="#1D314B" transform="translate(255,323)"/>
<path d="M0 0 C2.31 0.33 4.62 0.66 7 1 C7 1.66 7 2.32 7 3 C5.02 3.33 3.04 3.66 1 4 C0.67 2.68 0.34 1.36 0 0 Z " fill="#00002B" transform="translate(202,300)"/>
<path d="M0 0 C0.33 2.31 0.66 4.62 1 7 C0.67 6.34 0.34 5.68 0 5 C-0.66 5 -1.32 5 -2 5 C-2 4.01 -2 3.02 -2 2 C-3.32 1.67 -4.64 1.34 -6 1 C-3 0 -3 0 0 0 Z " fill="#0C223C" transform="translate(198,300)"/>
<path d="M0 0 C0.99 0.495 0.99 0.495 2 1 C2.33 1.99 2.66 2.98 3 4 C4.49985609 5.66710346 4.49985609 5.66710346 6 7 C4.35 6.67 2.7 6.34 1 6 C0.67 4.02 0.34 2.04 0 0 Z " fill="#1A2847" transform="translate(249,275)"/>
<path d="M0 0 C0.66 1.32 1.32 2.64 2 4 C1.34 4 0.68 4 0 4 C-0.33 5.32 -0.66 6.64 -1 8 C-2.32 7.34 -3.64 6.68 -5 6 C-4.360625 5.566875 -3.72125 5.13375 -3.0625 4.6875 C-0.73253997 3.08760823 -0.73253997 3.08760823 0 0 Z " fill="#141C2F" transform="translate(320,261)"/>
<path d="M0 0 C0.66 0.99 1.32 1.98 2 3 C1.34 3 0.68 3 0 3 C0.33 4.32 0.66 5.64 1 7 C0.01 7 -0.98 7 -2 7 C-2 6.34 -2 5.68 -2 5 C-2.99 4.67 -3.98 4.34 -5 4 C-4.360625 3.71125 -3.72125 3.4225 -3.0625 3.125 C-0.84793921 2.17176549 -0.84793921 2.17176549 0 0 Z " fill="#181D25" transform="translate(333,186)"/>
<path d="M0 0 C0.66 0 1.32 0 2 0 C2 0.66 2 1.32 2 2 C2.66 2 3.32 2 4 2 C4.33 3.32 4.66 4.64 5 6 C3.68 5.67 2.36 5.34 1 5 C1 4.34 1 3.68 1 3 C0.34 2.67 -0.32 2.34 -1 2 C-0.67 1.34 -0.34 0.68 0 0 Z " fill="#161E34" transform="translate(309,306)"/>
<path d="M0 0 C0.99 0.33 1.98 0.66 3 1 C2.67 1.99 2.34 2.98 2 4 C2.66 4.33 3.32 4.66 4 5 C3.01 5.33 2.02 5.66 1 6 C0.01 5.01 -0.98 4.02 -2 3 C-1.34 2.67 -0.68 2.34 0 2 C0 1.34 0 0.68 0 0 Z " fill="#153144" transform="translate(244,307)"/>
<path d="M0 0 C0.99 0.33 1.98 0.66 3 1 C1.35 2.65 -0.3 4.3 -2 6 C-2 4.68 -2 3.36 -2 2 C-1.34 2 -0.68 2 0 2 C0 1.34 0 0.68 0 0 Z " fill="#0C192A" transform="translate(255,216)"/>
<path d="M0 0 C0.99 0 1.98 0 3 0 C2.34 1.98 1.68 3.96 1 6 C-0.32 5.67 -1.64 5.34 -3 5 C-2.34 5 -1.68 5 -1 5 C-0.67 3.35 -0.34 1.7 0 0 Z " fill="#111726" transform="translate(349,156)"/>
<path d="M0 0 C1.06671952 3.20015856 0.94845472 4.88544294 0.5625 8.1875 C0.46066406 9.08855469 0.35882813 9.98960937 0.25390625 10.91796875 C0.17011719 11.60503906 0.08632812 12.29210937 0 13 C-0.33 13 -0.66 13 -1 13 C-1.02686553 11.02090602 -1.04633375 9.04171029 -1.0625 7.0625 C-1.07410156 5.96035156 -1.08570313 4.85820312 -1.09765625 3.72265625 C-1 1 -1 1 0 0 Z " fill="#000011" transform="translate(175,262)"/>
<path d="M0 0 C0.33 0 0.66 0 1 0 C1 2.31 1 4.62 1 7 C0.67 7 0.34 7 0 7 C0 4.69 0 2.38 0 0 Z " fill="#000000" transform="translate(235,273)"/>
<path d="M0 0 C2.475 0.495 2.475 0.495 5 1 C4.67 1.66 4.34 2.32 4 3 C2.68 2.01 1.36 1.02 0 0 Z " fill="#000000" transform="translate(306,260)"/>
<path d="M0 0 C0.66 0 1.32 0 2 0 C1.67 0.99 1.34 1.98 1 3 C0.67 2.01 0.34 1.02 0 0 Z " fill="#000000" transform="translate(285,264)"/>
<path d="M0 0 C0.99 0.495 0.99 0.495 2 1 C1.67 1.66 1.34 2.32 1 3 C0.67 2.01 0.34 1.02 0 0 Z " fill="#000000" transform="translate(176,278)"/>
<path d="M0 0 C0.99 0.495 0.99 0.495 2 1 C1.34 1.66 0.68 2.32 0 3 C0 2.01 0 1.02 0 0 Z " fill="#000000" transform="translate(331,260)"/>
<path d="M0 0 C0.66 0 1.32 0 2 0 C2 0.66 2 1.32 2 2 C1.34 2 0.68 2 0 2 C0 1.34 0 0.68 0 0 Z " fill="#000000" transform="translate(256,260)"/>
<path d="M0 0 C0 3 0 3 0 3 Z " fill="#000000" transform="translate(175,249)"/>
<path d="M0 0 C4 1 4 1 4 1 Z " fill="#000000" transform="translate(146,245)"/>
<path d="" fill="#000000" transform="translate(0,0)"/>
<path d="" fill="#000000" transform="translate(0,0)"/>
<path d="M0 0 C0.99 0.495 0.99 0.495 2 1 C1.01 1.495 1.01 1.495 0 2 C0 1.34 0 0.68 0 0 Z " fill="#000000" transform="translate(185,270)"/>
<path d="M0 0 C0.99 0.495 0.99 0.495 2 1 C1.01 1.495 1.01 1.495 0 2 C0 1.34 0 0.68 0 0 Z " fill="#000000" transform="translate(152,268)"/>
<path d="M0 0 C3 1 3 1 3 1 Z " fill="#000000" transform="translate(235,262)"/>
<path d="M0 0 C2 1 2 1 2 1 Z " fill="#000000" transform="translate(350,277)"/>
<path d="" fill="#000000" transform="translate(0,0)"/>
<path d="" fill="#000000" transform="translate(0,0)"/>
<path d="" fill="#000000" transform="translate(0,0)"/>
<path d="M0 0 C2 1 2 1 2 1 Z " fill="#000000" transform="translate(286,226)"/>
<path d="" fill="#00002A" transform="translate(0,0)"/>
<path d="" fill="#000000" transform="translate(0,0)"/>
<path d="" fill="#000000" transform="translate(0,0)"/>
<path d="" fill="#000000" transform="translate(0,0)"/>
<path d="" fill="#000000" transform="translate(0,0)"/>
<path d="" fill="#000000" transform="translate(0,0)"/>
<path d="" fill="#000000" transform="translate(0,0)"/>
<path d="" fill="#000000" transform="translate(0,0)"/>
<path d="" fill="#000000" transform="translate(0,0)"/>
<path d="" fill="#000000" transform="translate(0,0)"/>
<path d="" fill="#000000" transform="translate(0,0)"/>
<path d="" fill="#000000" transform="translate(0,0)"/>
<path d="" fill="#000000" transform="translate(0,0)"/>
<path d="" fill="#000000" transform="translate(0,0)"/>
<path d="" fill="#000000" transform="translate(0,0)"/>
<path d="" fill="#000000" transform="translate(0,0)"/>
<path d="" fill="#000000" transform="translate(0,0)"/>
<path d="" fill="#003333" transform="translate(0,0)"/>
<path d="" fill="#000000" transform="translate(0,0)"/>
<path d="" fill="#000000" transform="translate(0,0)"/>
<path d="" fill="#000000" transform="translate(0,0)"/>
<path d="" fill="#000000" transform="translate(0,0)"/>
<path d="" fill="#000000" transform="translate(0,0)"/>
<path d="" fill="#000000" transform="translate(0,0)"/>
<path d="" fill="#000000" transform="translate(0,0)"/>
<path d="" fill="#000000" transform="translate(0,0)"/>
<path d="" fill="#000000" transform="translate(0,0)"/>
<path d="" fill="#242424" transform="translate(0,0)"/>
<path d="" fill="#003333" transform="translate(0,0)"/>
<path d="" fill="#000000" transform="translate(0,0)"/>
</svg>
